<?xml version="1.0" encoding="utf-8"?>
<!-- Generator: Adobe Illustrator 26.0.3, SVG Export Plug-In . SVG Version: 6.00 Build 0)  -->
<svg version="1.1" id="圖層_1" xmlns="http://www.w3.org/2000/svg" xmlns:xlink="http://www.w3.org/1999/xlink" x="0px" y="0px"
	 viewBox="0 0 512 512" style="enable-background:new 0 0 512 512;" xml:space="preserve">
<style type="text/css">
	.st0{fill:#FFFFFF;}
	.st1{fill:#174C74;}
</style>
<g>
	<path class="st1" d="M64,84.9c1.9-5.3,4.1-10.3,8.7-14.1c7.5-6.1,15.9-5.9,24.9-4.5c42.2,6.5,84.4,12.9,126.6,19.3
		c14.2,2.2,28.4,4.2,42.6,6.6c13.7,2.2,21.4,11.4,21.4,25.5c0,28.4,0,56.7,0,85.1c0,1.5,0,3,0,5c6.2,1.3,12.4,2.6,18.5,3.8
		c40,8,80,16,120,23.8c11.5,2.2,18.3,8.8,21.4,19.8c0,57,0,114,0,171c-0.8,2.3-1.5,4.7-2.5,6.9c-3.6,7.5-10,11.3-17.7,13.4
		c-114.5,0-229,0-343.5,0c-6.2-1.7-12-4.3-15.6-10c-1.9-3-3.1-6.4-4.7-9.5C64,312.9,64,198.9,64,84.9z M271.9,430.3
		c0-1.9,0-3.4,0-4.8c0-102,0-203.9,0-305.9c0-1.1,0-2.3,0-3.4c-0.2-4.5-2.4-7.2-6.9-8.1c-4-0.8-8.1-1.4-12.2-2
		C198.9,98,145,89.9,91,81.8c-7.4-1.1-11.1,2-11.1,9.6c0,109.7,0,219.4,0,329.2c0,7,3,9.9,10.1,10c11.4,0,22.7,0,34.1,0
		c1.1,0,2.2-0.1,3.7-0.2c0-1.6,0-3.1,0-4.6c0-21.9,0-43.7,0-65.6c0-15.6,10-25.5,25.5-25.6c14.9-0.1,29.7,0,44.6,0
		c16.2,0,25.8,9.7,25.8,25.9c0,21.7,0,43.5,0,65.2c0,1.5,0,2.9,0,4.6C240,430.3,255.7,430.3,271.9,430.3z M288.3,430.5
		c1.8,0,3.1,0,4.5,0c42.6,0,85.2,0,127.9,0c8.9,0,11.4-2.5,11.4-11.3c0-52.2,0-104.5,0-156.7c0-8-1.8-10.2-9.5-11.7
		c-36.4-7.2-72.7-14.4-109.1-21.6c-8.3-1.6-16.6-3.2-25.2-4.9C288.3,293.1,288.3,361.5,288.3,430.5z M208,430.4c0-1.4,0-2.3,0-3.3
		c0-22.2,0-44.5,0-66.7c0-7.1-2.9-9.9-10.1-9.9c-14.5,0-29,0-43.5,0c-7.8,0-10.4,2.5-10.4,10.3c0,22,0,44,0,65.9
		c0,1.2,0.2,2.4,0.2,3.7C165.6,430.4,186.5,430.4,208,430.4z"/>
	<path class="st1" d="M427.8,446.4c7.7-2,14.1-5.9,17.7-13.4c1.1-2.2,1.7-4.6,2.5-6.9c0,6.8,0,13.5,0,20.3
		C441.2,446.4,434.5,446.4,427.8,446.4z"/>
	<path class="st1" d="M64,426.9c1.5,3.2,2.8,6.6,4.7,9.5c3.6,5.6,9.4,8.2,15.6,10c-6.8,0-13.5,0-20.2,0C64,439.9,64,433.4,64,426.9z
		"/>
	<path class="st1" d="M136,158.4c-5,0-10,0-15,0c-5.4,0-9-3.1-9.1-7.8c-0.1-4.8,3.3-8,8.8-8.1c10.1-0.1,20.2-0.1,30.3,0
		c5.4,0,8.9,3.2,8.9,8c0,4.7-3.6,7.9-9,7.9C146,158.5,141,158.4,136,158.4z"/>
	<path class="st1" d="M136.2,190.5c5.1,0,10.2-0.1,15.3,0c5.1,0.1,8.5,3.4,8.5,8c0,4.6-3.5,7.9-8.6,7.9c-10.2,0.1-20.5,0.1-30.7,0
		c-5.1,0-8.6-3.3-8.7-7.9c-0.1-4.8,3.4-8,8.8-8C125.9,190.4,131,190.5,136.2,190.5z"/>
	<path class="st1" d="M136,238.5c5.2,0,10.5-0.1,15.7,0c4.9,0.1,8.2,3.3,8.3,7.8c0.1,4.6-3.4,8-8.4,8.1c-10.4,0.1-20.7,0.1-31.1,0
		c-5,0-8.5-3.4-8.5-8c0-4.6,3.4-7.8,8.6-7.8C125.7,238.4,130.9,238.5,136,238.5z"/>
	<path class="st1" d="M136,302.4c-5.1,0-10.2,0.1-15.3,0c-5.1-0.1-8.6-3.3-8.6-7.9c-0.1-4.6,3.3-8,8.4-8c10.4-0.1,20.7-0.1,31.1,0
		c5.1,0,8.5,3.4,8.5,8c-0.1,4.6-3.5,7.8-8.6,7.9c-0.1,0-0.2,0-0.4,0C146,302.4,141,302.4,136,302.4z"/>
	<path class="st1" d="M215.8,158.4c-5,0-10,0.1-15,0c-5.4-0.1-8.8-3.3-8.7-8.1c0.1-4.7,3.3-7.7,8.6-7.8c10.1-0.1,20.2-0.1,30.3,0
		c5.4,0,9,3.2,9,7.9c0,4.7-3.5,8-8.9,8C226,158.5,220.9,158.4,215.8,158.4z"/>
	<path class="st1" d="M216.1,190.5c5.1,0,10.2-0.1,15.3,0c5.1,0.1,8.6,3.4,8.5,8c0,4.6-3.5,7.9-8.6,7.9c-10.2,0.1-20.4,0.1-30.7,0
		c-5.2,0-8.5-3.2-8.6-7.8c-0.1-4.9,3.2-8,8.7-8.1C205.9,190.4,211,190.5,216.1,190.5z"/>
	<path class="st1" d="M216,254.4c-5.1,0-10.2,0.1-15.3,0c-5.2-0.1-8.5-3.3-8.5-7.9c0-4.8,3.2-7.9,8.4-8c10.3-0.1,20.7-0.1,31,0
		c5.1,0,8.5,3.5,8.4,8c-0.1,4.6-3.6,7.8-8.7,7.8C226.2,254.5,221.1,254.4,216,254.4z"/>
	<path class="st1" d="M216,302.4c-5.1,0-10.2,0.1-15.3,0c-5.2-0.1-8.5-3.3-8.5-7.9c0-4.8,3.2-7.9,8.4-8c10.3-0.1,20.7-0.1,31,0
		c5.1,0,8.5,3.5,8.4,8c-0.1,4.6-3.6,7.7-8.7,7.9c-0.1,0-0.2,0-0.4,0C225.9,302.4,220.9,302.4,216,302.4z"/>
	<path class="st1" d="M360,302.4c-5.1,0-10.2,0.1-15.3,0c-5.2-0.1-8.5-3.3-8.5-7.9c0-4.8,3.2-7.9,8.4-8c10.3-0.1,20.7-0.1,31,0
		c5.1,0,8.5,3.5,8.4,8c-0.1,4.6-3.6,7.7-8.7,7.9c-0.1,0-0.2,0-0.4,0C369.9,302.4,364.9,302.4,360,302.4z"/>
	<path class="st1" d="M359.8,350.4c-5,0-10,0.1-15,0c-5.4-0.1-8.8-3.3-8.7-8.1c0.1-4.7,3.3-7.7,8.6-7.8c10.1-0.1,20.2-0.1,30.3,0
		c5.4,0,9,3.2,9,7.9c0,4.7-3.5,8-8.9,8C370,350.5,364.9,350.4,359.8,350.4z"/>
	<path class="st1" d="M360.3,382.5c5.1,0,10.2-0.1,15.3,0c4.9,0.1,8.3,3.3,8.4,7.7c0.1,4.6-3.3,8.1-8.4,8.1
		c-10.5,0.1-20.9,0.1-31.4,0c-4.9-0.1-8.1-3.4-8.1-8c0-4.6,3.1-7.8,8.1-7.9C349.6,382.4,354.9,382.5,360.3,382.5z"/>
</g>
</svg>
