<svg width="73" height="55" viewBox="0 0 73 55" fill="none" xmlns="http://www.w3.org/2000/svg">
<path d="M72.3608 20.459C71.9089 21.9707 71.1267 23.1836 69.6491 23.8867C69.4927 23.957 69.3884 24.3437 69.3884 24.5898C69.3362 26.5058 69.4231 28.4394 69.2667 30.3555C68.7626 36.4902 65.964 41.3242 61.0446 44.9101C60.5579 45.2617 60.3319 45.5957 60.3493 46.2285C60.3841 48.3379 60.3667 50.4472 60.3667 52.5566C60.3667 54.0859 59.8452 54.6133 58.3503 54.6133C57.6028 54.6133 56.8554 54.5957 56.1079 54.6133C55.3083 54.6308 54.7694 54.2793 54.4218 53.5761C53.6743 52.0469 52.9095 50.5351 52.1794 48.9883C51.9882 48.584 51.7796 48.4609 51.3276 48.4609C41.3325 48.4785 31.3548 48.4785 21.3596 48.4609C20.9425 48.4609 20.7339 48.584 20.56 48.9531C19.83 50.4648 19.0651 51.959 18.335 53.4707C17.9526 54.2617 17.379 54.6484 16.4925 54.6133C15.7276 54.5781 14.9454 54.6133 14.1632 54.6133C12.8942 54.5957 12.3206 54.0332 12.3206 52.75C12.3032 50.5 12.338 48.25 12.3032 46C12.3032 45.7011 12.112 45.3144 11.886 45.1386C6.18445 41.0254 3.35105 35.4179 3.31628 28.3515C3.31628 27.1035 3.2989 25.8379 3.31628 24.5898C3.31628 24.2031 3.22937 23.9746 2.84695 23.7637C0.952221 22.8144 0.0135482 20.8281 0.448119 18.8066C0.882689 16.7676 2.53406 15.3437 4.61999 15.2207C4.96765 15.2031 5.31531 15.2031 5.68035 15.2031C24.5755 15.2031 43.4706 15.2031 62.3831 15.2031C62.6786 15.2031 62.9915 15.2031 63.3218 15.2031C63.3391 15.0449 63.3739 14.9219 63.3739 14.8164C63.3739 11.916 63.3913 9.03319 63.3739 6.1328C63.3739 4.74413 62.5569 3.61913 61.3227 3.21483C60.0886 2.81053 58.7153 3.17967 58.02 4.2871C57.655 4.86717 57.5333 5.64061 57.3942 6.34374C57.3073 6.80077 57.3942 7.29295 57.3421 7.76756C57.2725 8.50585 56.7163 9.03319 56.021 9.1035C55.3431 9.17381 54.5956 8.73436 54.4913 8.01366C54.161 5.67577 54.4392 3.44335 56.2643 1.72069C58.1069 -0.0195432 60.3145 -0.458996 62.6438 0.490222C64.8862 1.40428 66.2247 3.17967 66.329 5.65819C66.4507 8.52342 66.3811 11.3887 66.3811 14.2715C66.3811 14.5527 66.3811 14.834 66.3811 15.2031C66.92 15.2031 67.3893 15.1855 67.8413 15.2031C70.0489 15.2734 71.596 16.4687 72.2392 18.6133C72.2913 18.7715 72.3435 18.9297 72.3956 19.0703C72.3608 19.5097 72.3608 19.9844 72.3608 20.459ZM6.35828 24.3086C6.35828 25.9258 6.35828 27.4902 6.35828 29.0547C6.37566 31.3398 6.81023 33.5371 7.78367 35.5937C10.8952 42.0625 16.0579 45.4199 23.1675 45.4902C31.9632 45.5605 40.7415 45.5078 49.5372 45.5078C51.7448 45.5078 53.8829 45.1914 55.9167 44.3125C61.427 41.957 64.9384 37.8262 65.9987 31.8672C66.4333 29.4414 66.2247 26.9101 66.3116 24.4316C66.3116 24.3965 66.2595 24.3613 66.2247 24.3086C56.2817 24.3086 46.3388 24.3086 36.3263 24.3086C36.3263 24.6074 36.3263 24.8711 36.3263 25.1172C36.3263 28.2988 36.3263 31.4629 36.3263 34.6445C36.3263 35.875 35.544 36.5254 34.362 36.332C28.5387 35.3476 22.7155 34.3633 16.9096 33.3965C15.7798 33.2031 15.3452 32.6933 15.3278 31.5156C15.3104 29.3887 15.3278 27.2441 15.3278 25.1172C15.3278 24.8535 15.3278 24.6074 15.3278 24.3086C12.338 24.3086 9.40027 24.3086 6.35828 24.3086ZM18.3698 30.5664C23.3761 31.4101 28.3302 32.2363 33.3016 33.0801C33.3016 28.0527 33.3016 23.1484 33.3016 18.2441C28.2954 18.2441 23.3413 18.2441 18.3698 18.2441C18.3698 22.3574 18.3698 26.418 18.3698 30.5664ZM36.3784 21.2148C36.6739 21.2148 36.8999 21.2148 37.1259 21.2148C47.2079 21.2148 57.2899 21.2148 67.372 21.2148C67.5979 21.2148 67.8413 21.2148 68.0673 21.1797C68.9538 21.0566 69.4927 20.2656 69.2841 19.3691C69.1103 18.5605 68.5192 18.1914 67.3894 18.1914C57.2899 18.1914 47.1731 18.1914 37.0737 18.1914C36.8477 18.1914 36.6218 18.209 36.3784 18.2265C36.3784 19.2109 36.3784 20.1426 36.3784 21.2148ZM15.3104 18.1914C11.7643 18.1914 8.28777 18.1738 4.79382 18.209C4.16804 18.209 3.66394 18.5605 3.43796 19.1758C3.22937 19.7383 3.28152 20.3711 3.76824 20.7402C4.13328 21.0215 4.65476 21.1973 5.10671 21.1973C8.33992 21.2324 11.5731 21.2148 14.7889 21.2148C14.9454 21.2148 15.1018 21.1797 15.293 21.1445C15.3104 20.1601 15.3104 19.2285 15.3104 18.1914ZM15.3973 47.0547C15.3973 48.584 15.3973 50.0429 15.3973 51.5547C15.5886 51.5371 15.8493 51.5722 15.8841 51.5019C16.5272 50.3066 17.1356 49.0937 17.7614 47.8457C16.927 47.582 16.197 47.3359 15.3973 47.0547ZM57.3073 51.7129C57.3073 50.0254 57.3073 48.5664 57.3073 47.0547C56.5077 47.3183 55.7602 47.582 54.9433 47.8457C55.5169 49.0234 56.0731 50.166 56.6642 51.291C56.7511 51.4668 57.0118 51.5195 57.3073 51.7129Z" fill="black"/>
</svg>
