<?xml version="1.0" encoding="utf-8"?>
<!-- Generator: Adobe Illustrator 26.0.3, SVG Export Plug-In . SVG Version: 6.00 Build 0)  -->
<svg version="1.1" id="圖層_1" xmlns="http://www.w3.org/2000/svg" xmlns:xlink="http://www.w3.org/1999/xlink" x="0px" y="0px"
	 viewBox="0 0 512 512" style="enable-background:new 0 0 512 512;" xml:space="preserve">
<style type="text/css">
	.st0{fill:#174C74;}
</style>
<g>
	<path d="M255.6,442.8c-69.6,0-139.1,0-208.7,0c-18.8,0-28.9-10.1-28.9-28.8c0-11.5,0.2-23-0.1-34.5c-0.3-12,4.8-20.4,15.2-26.4
		c64.4-37.3,128.8-74.7,193.1-112.2c1.6-1,3.6-2.5,4-4.2c1-3.3-0.1-5.5-4.1-6.9c-32.7-11.4-54.9-42.5-55.2-76.9
		c-0.3-40.5,32.2-77.9,72.4-83c41.5-5.4,79.3,17.2,93,55.4c5.2,14.5-0.7,28.6-14.2,33.7c-13.6,5.1-27.8-1.6-33.5-15.9
		c-10.2-25.4-40.3-32.2-58-12.9c-8.5,9.4-11.4,20.4-6.8,32.4c4.9,12.8,14.5,20.1,28.1,22.1c3,0.4,6,0.3,9,0.7
		c11.8,1.7,20.1,10.9,20.3,22.9c0.2,8.1,0.3,16.3,0,24.4c-0.2,4.2,1.1,6.5,4.9,8.7c63.8,36.9,127.5,74.1,191.4,110.9
		c11.3,6.5,16.9,15.4,16.4,28.5c-0.4,11.7,0,23.4-0.1,35c-0.1,16.3-10.7,27-27,27C396.5,442.9,326,442.8,255.6,442.8z M255.5,425.9
		c69.7,0,139.5,0,209.2,0c9.7,0,12.1-2.5,12.1-12.3c0-11-0.3-22,0.1-32.9c0.2-6.5-2.4-10.3-7.9-13.5
		c-66-38.1-131.8-76.5-197.8-114.7c-4.8-2.8-7.2-6.2-7-11.9c0.3-7.8,0-15.6,0.1-23.4c0.2-13.6,0.5-14.5-14-15.4
		c-20.1-1.4-38.2-17-43.8-37.1c-5.3-18.8,2.3-40.2,18.6-52.2c27.7-20.4,65.9-9,78.8,23.6c2.6,6.5,6.8,9.1,12.1,7.1
		c4.9-1.8,6.2-6.2,3.7-12.9c-11.3-30.6-42.5-48.4-75.6-43.2c-42.1,6.7-67.7,52.3-50.9,91c8.5,19.5,23.3,32.1,43.9,37.7
		c8.6,2.4,10,4.1,10,12.9c0,3.5-0.3,7.1,0.1,10.6c0.7,6.8-2.4,10.6-8.1,13.9c-65.7,38-131.2,76.2-196.9,114.1
		c-5.4,3.1-7.9,6.8-7.7,13.1c0.4,11,0.1,21.9,0.1,32.9c0,10.2,2.3,12.6,12.4,12.6C116.8,425.9,186.2,425.9,255.5,425.9z"/>
	<path d="M256,409.7c-63.7,0-127.4,0-191.1,0c-10.5,0-12.9-2.3-12.9-12.7c0.1-18-2-15,14.3-24.6c57.5-33.7,114.9-67.6,172.6-100.9
		c10.7-6.2,23.4-6.2,34-0.1c60.2,34.7,120,70.1,180,105.1c5,2.9,7.6,6.5,7.1,12.4c-0.3,3.9,0,7.8-0.1,11.7c-0.2,5.4-3.2,8.5-8.5,9
		c-1.8,0.2-3.5,0.1-5.3,0.1C382.7,409.7,319.3,409.7,256,409.7z M442.4,392.5c0.2-0.4,0.5-0.8,0.7-1.3c-1.2-0.9-2.2-1.9-3.5-2.6
		c-57.8-33.9-115.6-67.9-173.5-101.6c-6.2-3.6-13.8-3.7-19.9-0.2c-58.3,33.8-116.4,67.9-174.5,102c-1.1,0.7-2,1.8-4,3.6
		C193.8,392.5,318.1,392.5,442.4,392.5z"/>
</g>
</svg>
