<?xml version="1.0" encoding="utf-8"?>
<!-- Generator: Adobe Illustrator 26.0.3, SVG Export Plug-In . SVG Version: 6.00 Build 0)  -->
<svg version="1.1" id="圖層_1" xmlns="http://www.w3.org/2000/svg" xmlns:xlink="http://www.w3.org/1999/xlink" x="0px" y="0px"
	 viewBox="0 0 512 512" style="enable-background:new 0 0 512 512;" xml:space="preserve">
<style type="text/css">
	.st0{fill:#174C74;}
</style>
<g>
	<path class="st0" d="M339.6,421.9c-4.1,9.6-10.8,15.7-21,17.7c-1.5,0.3-3,0.4-4.5,0.4c-9.5,0-19,0.1-28.5,0
		c-15-0.2-26.5-11.8-26.9-26.7c-0.4-14.4,10.5-26.7,25.1-27.5c10.6-0.6,21.3-0.5,31.9,0c10.5,0.4,18.1,6,22.6,15.4
		c1,2,2,2.7,4.2,2.7c9.9-0.3,19.8,0.3,29.6-0.8c17.2-1.9,30.5-17,31-34.2c0.2-6.5,0-13,0-18.9c-4.1-1.7-8-2.8-11.3-4.8
		c-7.2-4.5-11.3-11.3-11.4-20c-0.1-24.3-0.2-48.5,0-72.8c0.1-11.5,8-20.7,19.2-23.4c1-0.2,1.9-0.5,2.9-0.8
		c-1.8-64-55.2-133-138-137.8c-84.3-4.8-150.8,60.5-155.3,137.6c1,0.3,2,0.7,3,0.9c11.4,2.8,19.2,12,19.3,23.7c0.2,24,0.3,48,0,72
		c-0.2,16.5-14.4,27.2-31.3,24.2c-17.2-3.1-30.6-15.9-31.8-33.6c-1.3-17.8-0.9-35.8,0-53.6c0.7-12.9,8.4-22.4,19.7-28.8
		c2-1.1,2.7-2.3,2.9-4.6c6.5-71.2,42.7-121.2,109.4-146.3c94.2-35.4,198.8,24.8,217.5,123.7c1.4,7.5,2.1,15.1,2.8,22.7
		c0.2,2,0.7,3.3,2.6,4.4c13.5,7.5,20.4,19.2,20.7,34.5c0.2,14.3,0.2,28.5,0,42.8c-0.2,15.2-7,26.8-20.3,34.4c-2.2,1.3-2.8,2.6-2.8,5
		c-0.1,8.7,0.5,17.6-0.8,26.2c-4,26.7-26.4,45.7-53.4,46.1C357.8,422,348.7,421.9,339.6,421.9z M398.4,288.6c0,11.6-0.1,23.3,0,34.9
		c0,5.4,2.9,8,8.2,7.8c10.5-0.4,19.3-9.1,19.6-20c0.3-15,0.3-30,0-45c-0.2-10.4-8.5-19.1-18.4-20c-6.4-0.6-9.4,2-9.4,8.5
		C398.3,266.1,398.4,277.4,398.4,288.6z M113.7,288.8c0-11.4,0-22.8,0-34.1c0-0.3,0-0.5,0-0.8c-0.2-5.2-2.9-7.8-8.1-7.7
		c-10.4,0.2-19.5,9-19.7,19.8c-0.3,15.1-0.3,30.3,0,45.4c0.2,10.2,8.5,18.8,18.2,19.7c6.7,0.6,9.6-1.9,9.6-8.6
		C113.7,311.4,113.7,300.1,113.7,288.8z M299.7,422c4.6,0,9.3,0.1,13.9,0c5.6-0.1,9.4-3.8,9.4-9.1c0.1-5.3-3.6-9.2-9.2-9.2
		c-9.2-0.2-18.5-0.2-27.8,0c-5.6,0.1-9.3,4-9.3,9.2c0.1,5.2,3.9,9,9.4,9.1C290.7,422.1,295.2,422,299.7,422z"/>
	<path class="st0" d="M198.4,315.1c-6.7-2.1-13.3-3.2-18.8-6.2c-13.4-7.1-19.9-19-20-34.1c-0.1-25.4-0.2-50.8,0-76.2
		c0.2-23,16.6-38.9,39.7-38.9c37.9-0.1,75.8-0.1,113.6,0c22.8,0,39.2,15.8,39.5,38.7c0.3,25.5,0.3,51,0,76.5
		c-0.3,23-16.8,38.8-39.8,38.9c-15.1,0.1-30.3-0.1-45.4,0.1c-2,0-4.4,1-5.8,2.4c-10.6,10.3-20.9,20.8-31.5,31.1
		c-9.4,9-24.6,6.1-29.7-5.8c-1.2-2.9-1.6-6.3-1.8-9.5C198.2,326.1,198.4,320.1,198.4,315.1z M216.4,333.9c0.3,0.2,0.6,0.3,0.9,0.5
		c1-0.9,2-1.8,2.9-2.7c10.6-10.5,21.2-20.9,31.6-31.5c3.1-3.2,6.5-4.5,11-4.5c16.4,0.2,32.7,0.1,49.1,0.1c14.4,0,22.6-8.2,22.6-22.5
		c0-24.4,0-48.8,0-73.1c0-14.4-8.1-22.4-22.6-22.4c-37.1,0-74.2,0-111.4,0c-15,0-22.9,7.9-23,22.9c0,24.1,0,48.3,0,72.4
		c0,1.6,0,3.3,0.2,4.9c1,9,7.5,16.1,16.4,17.5c3.5,0.6,7.2,0.5,10.8,0.5c8.3,0.1,11.3,3,11.3,11.3
		C216.4,316,216.4,324.9,216.4,333.9z"/>
	<path class="st0" d="M256,224.8c7.2-0.1,13.4,6.1,13.4,13.3c0,7.2-6.2,13.4-13.4,13.3c-7.1-0.1-13.1-6-13.2-13.2
		C242.6,231.1,248.7,224.9,256,224.8z"/>
	<path class="st0" d="M199,238.3c-0.1-7.3,5.9-13.4,13.2-13.5c7.3,0,13.3,6,13.3,13.3c0,7.2-5.8,13.1-13,13.3
		C205.3,251.6,199.1,245.6,199,238.3z"/>
	<path class="st0" d="M313,238.1c0,7.3-6.1,13.4-13.4,13.3c-7.3-0.1-13.2-6.1-13.1-13.5c0.1-7.2,6-13.1,13.1-13.1
		C307,224.8,313,230.8,313,238.1z"/>
</g>
</svg>
