<svg width="54" height="54" viewBox="0 0 54 54" fill="none" xmlns="http://www.w3.org/2000/svg">
<path d="M54 5.58984V48.4102C53.9657 48.5262 53.9235 48.6396 53.8998 48.7582C53.3883 51.2486 51.9223 52.8992 49.5268 53.7139C49.1669 53.8365 48.7898 53.9064 48.4207 54H5.68345C5.24575 53.8853 4.79751 53.7983 4.37168 53.6506C1.73892 52.7344 0.112061 50.3613 0.112061 47.4609C0.112061 33.8247 0.112061 20.1885 0.112061 6.55225C0.112061 6.4125 0.112059 6.27144 0.118651 6.13037C0.218846 4.13701 1.05381 2.52422 2.62353 1.29199C3.52793 0.57876 4.58921 0.246533 5.69004 0.0065918H48.4207C48.4984 0.0441591 48.5796 0.0737541 48.6633 0.0949221C50.4061 0.371778 51.7733 1.25508 52.8201 2.66309C53.47 3.53188 53.7693 4.5457 54 5.58984ZM35.6959 49.7813H47.3555C48.9625 49.7813 49.7892 48.9573 49.7892 47.3528V6.64321C49.7892 5.04141 48.9625 4.21875 47.3515 4.21875H6.77505C5.13237 4.21875 4.31631 5.03481 4.31631 6.67485C4.31631 20.2276 4.31631 33.7794 4.31631 47.3304C4.31631 48.9692 5.13369 49.7813 6.78032 49.7813H29.116V32.5714H22.8775V26.0244H29.1753C29.1753 24.333 29.1226 22.6969 29.1858 21.0661C29.3361 17.1835 31.8568 13.7861 35.4665 12.4255C37.9714 11.4829 40.554 11.9377 43.1235 11.7954V18.3516C41.7063 18.3516 40.3233 18.3384 38.9404 18.3516C37.0037 18.374 35.713 19.6699 35.6867 21.604C35.6708 22.8155 35.6867 24.0284 35.6867 25.2413V26.0679H43.2633C42.8994 28.2696 42.5461 30.4106 42.1835 32.6057H35.6959V49.7813Z" fill="white"/>
</svg>
