<?xml version="1.0" encoding="utf-8"?>
<!-- Generator: Adobe Illustrator 26.0.3, SVG Export Plug-In . SVG Version: 6.00 Build 0)  -->
<svg version="1.1" id="圖層_1" xmlns="http://www.w3.org/2000/svg" xmlns:xlink="http://www.w3.org/1999/xlink" x="0px" y="0px"
	 viewBox="0 0 512 512" style="enable-background:new 0 0 512 512;" xml:space="preserve">
<style type="text/css">
	.st0{fill:#174C74;}
</style>
<g>
	<path class="st0" d="M43.5,468.5c0-141.5,0-283.2,0-425c141.6,0,283.2,0,425,0c0,141.6,0,283.2,0,425
		C326.9,468.5,185.2,468.5,43.5,468.5z M196.3,179.3c85.5,0,170.5,0,255.4,0c0-39.9,0-79.5,0-119.1c-130.6,0-260.9,0-391.3,0
		c0,85.2,0,170.3,0,255.3c39.9,0,79.5,0,119.3,0c0-1.8,0-3.3,0-4.8c0-60.2,0-120.4,0-180.6c0-1.5-0.1-3.1,0.1-4.6
		c0.5-4.2,4.1-7.3,8.2-7.3c4.1,0,7.7,3.1,8.2,7.3c0.2,1.4,0.1,2.8,0.1,4.1C196.3,146.1,196.3,162.6,196.3,179.3z M332.7,196.4
		c0,85.3,0,170.4,0,255.3c39.9,0,79.5,0,119.1,0c0-85.3,0-170.2,0-255.3C412.1,196.4,372.6,196.4,332.7,196.4z M60.3,451.8
		c85.3,0,170.3,0,255.2,0c0-39.9,0-79.5,0-119.1c-85.2,0-170.1,0-255.2,0C60.3,372.4,60.3,411.9,60.3,451.8z M196.5,315.6
		c39.9,0,79.5,0,119.1,0c0-39.9,0-79.5,0-119.1c-39.8,0-79.4,0-119.1,0C196.5,236.2,196.5,275.7,196.5,315.6z"/>
	<path class="st0" d="M187.9,97.4c-4.6-0.1-8.3-4-8.2-8.6c0.2-4.4,3.9-8,8.4-8c4.6,0.1,8.4,4,8.2,8.6
		C196.1,93.8,192.3,97.4,187.9,97.4z"/>
</g>
</svg>
