<svg width="55" height="53" viewBox="0 0 55 53" fill="none" xmlns="http://www.w3.org/2000/svg">
<path d="M54.5691 19.1037C54.3204 20.0263 54.1764 20.9909 53.8098 21.8437C52.1603 25.6042 49.3194 27.5055 45.4706 27.5194C30.8736 27.5474 16.2635 27.5334 1.66653 27.5334C1.47016 27.5334 1.27379 27.5194 1.09051 27.4915C0.593031 27.3936 0.22647 26.9043 0.213379 26.3591C0.213379 25.8419 0.553756 25.3386 1.02505 25.2407C1.31306 25.1709 1.62726 25.1569 1.91527 25.1569C16.3028 25.1569 30.6903 25.1569 45.0778 25.1569C46.531 25.1569 47.9187 24.9192 49.1885 24.0944C51.7545 22.4169 52.9327 19.0478 52.0294 15.9582C51.0999 12.8268 48.3245 10.8277 45.1695 11.0514C42.2893 11.2611 39.7758 13.6935 39.2652 16.797C39.1867 17.2444 39.1867 17.7057 39.1212 18.1391C39.0034 18.894 38.5714 19.2714 37.9299 19.2295C37.3146 19.1736 36.9087 18.6983 36.9349 17.9434C37.0527 14.1968 38.6499 11.3729 41.7657 9.69535C47.2379 6.73166 53.5349 10.2965 54.4906 16.797C54.5037 16.8809 54.556 16.9648 54.5822 17.0487C54.5691 17.7476 54.5691 18.4187 54.5691 19.1037Z" fill="black"/>
<path d="M19.4052 33.6984C25.0083 33.6984 30.6246 33.6984 36.2277 33.6984C39.7362 33.6984 42.4462 35.2781 44.2266 38.5074C47.3424 44.1692 43.8469 51.6343 37.7332 52.4452C32.4574 53.1581 27.7575 48.8943 27.7052 43.3444C27.6921 42.3239 28.3859 41.6948 29.1845 42.0024C29.7736 42.226 29.9045 42.7573 29.9438 43.3584C30.0485 45.6231 30.9649 47.4544 32.6799 48.7965C34.9186 50.5579 38.0081 50.5859 40.2861 48.8943C42.6425 47.1329 43.6767 44.0294 42.8782 41.0937C42.1058 38.2698 39.6708 36.2148 36.8954 36.075C36.5812 36.061 36.2539 36.047 35.9397 36.047C24.6025 36.047 13.2522 36.047 1.91498 36.047C1.64006 36.047 1.35205 36.033 1.07713 35.9771C0.56656 35.8653 0.21309 35.376 0.226182 34.8308C0.239273 34.2716 0.632017 33.7823 1.15568 33.6984C1.40441 33.6565 1.65315 33.6565 1.90189 33.6565C7.72759 33.6984 13.5664 33.6984 19.4052 33.6984Z" fill="black"/>
<path d="M12.4407 16.9088C15.7004 16.9088 18.9471 16.9088 22.2069 16.9088C23.948 16.9088 25.5714 16.5314 26.9722 15.3431C29.2763 13.3859 30.101 9.94694 28.9228 7.05315C27.7708 4.21527 24.9168 2.42588 22.1676 2.81731C19.0388 3.26466 16.7085 5.68314 16.3157 8.89846C16.2765 9.19203 16.2634 9.49959 16.2372 9.80714C16.1717 10.5481 15.7004 11.0513 15.0851 11.0094C14.4698 10.9814 14.0116 10.4502 14.0247 9.6953C14.0509 8.3952 14.2866 7.151 14.8102 5.96273C16.4335 2.24414 20.0075 0.00739396 23.6469 0.426784C27.5744 0.874133 30.5985 3.72598 31.4887 7.82203C32.6015 12.9246 29.237 18.3068 24.3932 19.1036C23.6469 19.2294 22.8876 19.2854 22.1283 19.2993C15.3731 19.3133 8.61796 19.3133 1.84967 19.2993C1.58784 19.2993 1.31292 19.2854 1.06419 19.2294C0.55362 19.1176 0.200151 18.6283 0.213242 18.0831C0.226334 17.5239 0.619077 17.0346 1.14274 16.9508C1.36529 16.9088 1.60094 16.9088 1.83658 16.9088C5.37127 16.9088 8.90597 16.9088 12.4407 16.9088Z" fill="black"/>
</svg>
