<?xml version="1.0" encoding="utf-8"?>
<!-- Generator: Adobe Illustrator 26.0.3, SVG Export Plug-In . SVG Version: 6.00 Build 0)  -->
<svg version="1.1" id="圖層_1" xmlns="http://www.w3.org/2000/svg" xmlns:xlink="http://www.w3.org/1999/xlink" x="0px" y="0px"
	 viewBox="0 0 512 512" style="enable-background:new 0 0 512 512;" xml:space="preserve">
<style type="text/css">
	.st0{fill:#174C74;}
</style>
<g>
	<path class="st0" d="M493.3,324.3c-2.3,4-5.9,5.3-10.4,5.7c-10.9,0.9-19.9,9.9-21.1,20.7c-0.1,1.2-0.1,2.5-0.4,3.7
		c-0.9,4.3-4.2,7.1-8.1,6.9c-3.9-0.2-7.1-3.1-7.4-7.5c-0.6-7.2-2.9-13.6-8.7-18.3c-2-1.6-4.2-2.8-7.3-4.7c0,3,0,4.8,0,6.6
		c0,33.1,0,66.2,0,99.3c0,9.4-2.4,11.9-11.8,11.9c-108.4,0-216.9,0-325.3,0c-9.3,0-11.7-2.5-11.7-12c0-72.7,0-145.4,0-218.1
		c0-1.8,0-3.6,0-6.2c-8.2,3.5-13,8.9-15,16.7c-0.5,2.1-0.7,4.3-1,6.4c-0.6,4.3-3.3,6.8-7.4,7c-4.2,0.2-7-2.2-7.9-6.4
		c-0.6-2.7-0.7-5.5-1.4-8.2c-2.6-9.2-10.8-16-20.2-16.7c-4.5-0.3-8.1-1.7-10.4-5.7c0-1.5,0-3.1,0-4.6c1.9-3.7,4.9-5.5,9.2-6
		c13.8-1.7,20.8-9.1,22.4-22.9c0.6-5.5,3.5-8.5,8-8.4c4.6,0,7.2,2.9,7.9,8.5c1.3,10.8,6.3,17.7,15.8,21.1c0-2,0-3.7,0-5.5
		c0-35.8,0-71.5,0-107.3c0-10,2.3-12.2,12.4-12.2c108,0,216,0,324,0c10.1,0,12.4,2.3,12.4,12.3c0,75.2,0,150.4,0,225.6
		c0,1.8,0,3.7,0,6.2c8.3-3.3,13-8.8,15-16.8c0.5-2.1,0.6-4.3,1-6.4c0.7-4,3.1-6.4,7.2-6.6c4.1-0.2,6.8,1.8,7.9,5.7
		c0.3,1.2,0.5,2.4,0.6,3.6c1.2,11.8,9.1,20.2,21,21.8c4.6,0.6,8.5,1.6,10.5,6.2C493.3,321.2,493.3,322.8,493.3,324.3z M413.9,390
		c-3.4,1.1-6.6,2.6-10.1,3.2c-10.4,1.6-18.4,8.3-20.7,18c-0.6,2.4-0.7,4.9-1.2,7.3c-0.9,4-3.6,6.1-7.6,6.1c-3.8,0-6.4-2.1-7.4-5.8
		c-0.4-1.5-0.6-3-0.8-4.6c-1.2-10-8-17.9-17.8-20.2c-2.2-0.5-4.6-0.6-6.9-1.1c-4-0.8-6.8-4-6.6-7.8c0.2-4,2.3-6.7,6.3-7.6
		c1.3-0.3,2.8-0.3,4.1-0.5c10.2-1.3,18.3-8.6,20.5-18.3c0.5-2.4,0.5-4.9,1.1-7.3c1-3.8,3.6-5.7,7.5-5.7c3.8,0,6.4,2,7.4,5.8
		c0.4,1.3,0.6,2.7,0.7,4.1c1.4,11.7,9.4,19.8,20.9,21.5c3.6,0.5,7,2.2,10.2,3.2c0-98,0-197.1,0-295.8c-8-2-13.5,0.5-19.2,6.2
		c-35.4,36-71.2,71.5-106.9,107.2c-5.5,5.5-10.2,6.5-14,2.7c-3.8-3.8-3-8.2,2.8-13.9c32.7-32.7,65.4-65.4,98.2-98.1
		c1.2-1.2,2.3-2.5,4.2-4.5c-7.3,0-13.3,0.2-19.3-0.1c-3.9-0.2-6.6,1-9.3,3.8c-21.2,21.4-42.6,42.7-64,64c-4.4,4.4-9.2,4.7-12.6,1.2
		c-3.3-3.5-2.9-7.8,1.3-12.3c0.7-0.8,1.5-1.5,2.3-2.3c16.7-16.7,33.5-33.5,50.2-50.2c1.1-1.1,2.1-2.3,3.5-3.9
		c-78.4,0-155.9,0-233.6,0c0,17.4,0,34.5,0,50.6c3.3-1.1,6.5-2.9,9.9-3.4c11.9-1.7,19.8-9.4,21.2-21.5c0.2-1.4,0.4-2.8,0.7-4.1
		c1-3.8,3.8-5.7,7.5-5.7c3.7,0,6.4,2,7.4,5.8c0.4,1.5,0.6,3,0.8,4.6c1.2,10.1,8.4,18.3,18.1,20.5c2.4,0.5,4.9,0.6,7.3,1.1
		c3.8,0.9,5.7,3.7,5.7,7.5c0,3.7-1.9,6.5-5.8,7.4c-1.5,0.4-3,0.6-4.6,0.8c-11.3,1.3-19.6,9.6-20.9,20.8c-0.2,1.7-0.4,3.4-0.9,5
		c-1.1,3.5-3.8,5.3-7.3,5.3c-3.6,0-6.3-1.8-7.4-5.3c-0.6-1.9-0.7-3.9-1-5.9c-1.2-9.8-9.6-18.3-19.3-20c-4.1-0.7-8.1-2.3-11.8-3.4
		c0,95.2,0,191.5,0,288.4c2,0,3.6,0,5.3,0c24.4,0,48.9-0.1,73.3,0.1c3.5,0,6-1,8.5-3.5c36.7-36.8,73.5-73.6,110.2-110.3
		c1.3-1.3,2.6-2.7,4.2-3.7c3.2-2.1,6.6-1.8,9.4,0.8c2.9,2.7,3.5,6.2,1.4,9.7c-1,1.7-2.5,3.1-3.9,4.5c-32.7,32.7-65.4,65.4-98.1,98.2
		c-1.1,1.1-2.2,2.3-4.1,4.3c7.6,0,13.9-0.2,20.2,0.1c3.3,0.1,5.7-0.9,8.1-3.3c20.9-21.1,42-42.1,63-63.1c1.3-1.3,2.7-2.6,4.2-3.6
		c3.5-2.3,6.9-1.7,9.7,1.2c2.8,2.9,3,6.4,0.8,9.8c-0.9,1.4-2.2,2.6-3.4,3.8c-16.9,17-33.9,33.9-50.9,50.9c-1.1,1.1-2.1,2.3-3.6,3.9
		c54.7,0,108.4,0,162.4,0C413.9,417.8,413.9,403.4,413.9,390z M136.8,132.9c-2.3,2.1-4.8,4.5-6.2,5.8c2.1,2.7,4.2,5.5,6,7.8
		c2.6-2.5,5-4.8,7.1-6.9C141.4,137.4,139,135.1,136.8,132.9z M58.2,196.8c-2.7,2.1-5.5,4.2-7.4,5.6c2.4,2.7,4.7,5.2,6.8,7.6
		c2.2-2.3,4.6-4.8,6.7-6.9C62.2,200.8,59.7,198.3,58.2,196.8z M453.4,328.7c2.6-2.5,5-4.8,6.9-6.6c-2.2-2.4-4.6-5-6.6-7.1
		c-2.4,2.1-5,4.5-7.2,6.4C449,324.1,451.3,326.5,453.4,328.7z M368.1,384.7c2.1,2.6,4.2,5.3,5.9,7.4c2.8-2.5,5.3-4.7,7.1-6.3
		c-2.4-2.5-4.7-5.1-7-7.5C372.1,380.5,369.8,382.9,368.1,384.7z"/>
</g>
</svg>
