<svg width="66" height="55" viewBox="0 0 66 55" fill="none" xmlns="http://www.w3.org/2000/svg">
<path d="M32.6622 54.483C23.1766 54.483 13.7047 54.483 4.21915 54.483C1.65696 54.483 0.280469 53.0132 0.280469 50.2917C0.280469 48.6181 0.307727 46.9444 0.266841 45.2708C0.225955 43.5244 0.921016 42.3019 2.3384 41.4287C11.1153 36.0003 19.8921 30.5574 28.6553 25.0999C28.8734 24.9543 29.146 24.736 29.2005 24.4886C29.3368 24.0084 29.1869 23.6882 28.6417 23.4845C24.1851 21.8254 21.1596 17.2993 21.1187 12.2929C21.0778 6.39884 25.5071 0.955892 30.9858 0.213672C36.6417 -0.572208 41.7934 2.71685 43.6605 8.27622C44.3692 10.3865 43.5651 12.4385 41.7252 13.1807C39.8717 13.9229 37.9364 12.9478 37.1596 10.8667C35.7695 7.17017 31.6673 6.18054 29.255 8.98933C28.0966 10.3573 27.7013 11.9582 28.3282 13.7046C28.9961 15.5674 30.3044 16.6298 32.1579 16.9209C32.5668 16.9791 32.9756 16.9646 33.3845 17.0228C34.9927 17.2702 36.1238 18.6091 36.1511 20.3555C36.1784 21.5343 36.192 22.7277 36.1511 23.9065C36.1238 24.5177 36.301 24.8525 36.8189 25.1726C45.514 30.5428 54.1954 35.9567 62.9041 41.3123C64.4442 42.2582 65.2074 43.5535 65.1392 45.46C65.0847 47.1627 65.1392 48.8655 65.1256 50.5536C65.112 52.9258 63.6673 54.483 61.4459 54.483C51.8649 54.4976 42.2567 54.483 32.6622 54.483ZM32.6485 52.0235C42.1477 52.0235 51.6605 52.0235 61.1597 52.0235C62.4817 52.0235 62.8087 51.6597 62.8087 50.2335C62.8087 48.6326 62.7679 47.0317 62.8224 45.4454C62.8496 44.4995 62.4953 43.9464 61.7457 43.4807C52.7508 37.9359 43.7831 32.3474 34.7882 26.7881C34.1341 26.3806 33.807 25.8858 33.8342 25.0562C33.8751 23.9211 33.8342 22.7859 33.8479 21.6507C33.8751 19.6715 33.916 19.5405 31.9398 19.4095C29.2005 19.2058 26.7337 16.9355 25.9705 14.0102C25.2482 11.2742 26.2839 8.15979 28.5054 6.41339C32.2806 3.44451 37.4867 5.10359 39.2448 9.84798C39.5991 10.7939 40.1715 11.1723 40.8939 10.8813C41.5617 10.6193 41.7388 9.97896 41.3981 9.00388C39.8581 4.55056 35.6059 1.96007 31.0949 2.71684C25.3572 3.69192 21.8683 10.3282 24.1579 15.9604C25.3163 18.7983 27.3334 20.632 30.1409 21.447C31.3129 21.7963 31.5037 22.0437 31.5037 23.3244C31.5037 23.8337 31.4628 24.3577 31.5174 24.867C31.6128 25.8566 31.1903 26.4097 30.4134 26.8899C21.4594 32.4202 12.5326 37.9796 3.5786 43.4953C2.84266 43.9464 2.50194 44.4849 2.5292 45.4018C2.58371 47.0026 2.54283 48.5889 2.54283 50.1898C2.54283 51.6743 2.85629 52.0235 4.23278 52.0235C13.7456 52.0235 23.2039 52.0235 32.6485 52.0235Z" fill="black"/>
<path d="M32.7166 49.6659C24.0351 49.6659 15.3537 49.6659 6.67224 49.6659C5.24123 49.6659 4.91414 49.3312 4.91414 47.8177C4.92777 45.1981 4.64157 45.6347 6.86304 44.2375C14.6995 39.333 22.5224 34.3995 30.3861 29.5532C31.8444 28.6509 33.5752 28.6509 35.0198 29.5386C43.2243 34.5887 51.3742 39.7405 59.5514 44.8342C60.2329 45.2563 60.5872 45.7802 60.5191 46.6388C60.4782 47.2064 60.5191 47.774 60.5054 48.3416C60.4782 49.1275 60.0693 49.5786 59.347 49.6514C59.1017 49.6805 58.87 49.6659 58.6247 49.6659C49.9841 49.6659 41.3435 49.6659 32.7166 49.6659ZM58.1204 47.1628C58.1477 47.1045 58.1886 47.0463 58.2158 46.9736C58.0523 46.8426 57.916 46.697 57.7388 46.5952C49.8614 41.6616 41.9841 36.7134 34.0931 31.809C33.2481 31.285 32.2123 31.2705 31.381 31.7799C23.4355 36.6989 15.5172 41.6616 7.59899 46.6243C7.44907 46.7262 7.32641 46.8862 7.05384 47.1482C24.2396 47.1628 41.18 47.1628 58.1204 47.1628Z" fill="black"/>
</svg>
