<svg width="45" height="38" viewBox="0 0 45 38" fill="none" xmlns="http://www.w3.org/2000/svg">
<path d="M32.5067 35.714C32.0168 36.6921 31.2161 37.3136 29.9973 37.5174C29.818 37.548 29.6388 37.5582 29.4595 37.5582C28.3243 37.5582 27.1891 37.5683 26.0539 37.5582C24.2615 37.5378 22.8873 36.3559 22.8395 34.8378C22.7917 33.3706 24.0942 32.1174 25.8388 32.0358C27.1055 31.9747 28.3841 31.9849 29.6507 32.0358C30.9054 32.0766 31.8136 32.6472 32.3513 33.6049C32.4708 33.8087 32.5903 33.88 32.8532 33.88C34.0362 33.8494 35.2193 33.9106 36.3903 33.7985C38.4456 33.6049 40.0349 32.0664 40.0947 30.3139C40.1186 29.6517 40.0947 28.9894 40.0947 28.3883C39.6048 28.2151 39.1387 28.103 38.7444 27.8992C37.884 27.4407 37.3941 26.7479 37.3821 25.8615C37.3702 23.3856 37.3582 20.9199 37.3821 18.444C37.3941 17.2723 38.3381 16.335 39.6765 16.0599C39.7959 16.0395 39.9035 16.0089 40.023 15.9783C39.8079 9.45754 33.4268 2.42729 23.5325 1.93823C13.459 1.44916 5.51255 8.10243 4.97482 15.958C5.09432 15.9885 5.21381 16.0293 5.33331 16.0497C6.69556 16.335 7.62763 17.2723 7.63958 18.4644C7.66348 20.9097 7.67543 23.355 7.63958 25.8003C7.61568 27.4815 5.91884 28.5717 3.89936 28.266C1.84403 27.9501 0.242781 26.646 0.0993859 24.8426C-0.0559588 23.029 -0.00816044 21.195 0.0993859 19.3814C0.183033 18.067 1.10315 17.0991 2.45346 16.447C2.69245 16.335 2.7761 16.2127 2.79999 15.9783C3.57672 8.72395 7.90247 3.62956 15.8729 1.07218C27.1294 -2.53464 39.6287 3.599 41.8632 13.6757C42.0305 14.4398 42.1142 15.2142 42.1978 15.9885C42.2217 16.1923 42.2815 16.3248 42.5085 16.4368C44.1217 17.201 44.9462 18.3931 44.9821 19.952C45.006 21.409 45.006 22.8558 44.9821 24.3128C44.9582 25.8615 44.1456 27.0433 42.5563 27.8177C42.2934 27.9501 42.2217 28.0826 42.2217 28.3271C42.2098 29.2136 42.2815 30.1204 42.1261 30.9966C41.6481 33.717 38.9714 35.6529 35.745 35.6936C34.6815 35.7242 33.5941 35.714 32.5067 35.714ZM39.5331 22.1324C39.5331 23.3143 39.5211 24.5063 39.5331 25.6882C39.5331 26.2384 39.8796 26.5033 40.5129 26.483C41.7676 26.4422 42.8192 25.5558 42.855 24.4452C42.8909 22.9169 42.8909 21.3886 42.855 19.8603C42.8311 18.8006 41.8393 17.9142 40.6563 17.8225C39.8915 17.7614 39.5331 18.0263 39.5331 18.6886C39.5211 19.8399 39.5331 20.9912 39.5331 22.1324ZM5.51255 22.1527C5.51255 20.9912 5.51255 19.8297 5.51255 18.6784C5.51255 18.6478 5.51255 18.6274 5.51255 18.5969C5.48865 18.067 5.16602 17.8021 4.54464 17.8123C3.30188 17.8327 2.21446 18.7293 2.19057 19.8297C2.15472 21.3682 2.15472 22.9169 2.19057 24.4554C2.21446 25.4947 3.20628 26.3709 4.36539 26.4626C5.16602 26.5237 5.51255 26.269 5.51255 25.5864C5.51255 24.4554 5.51255 23.3041 5.51255 22.1527ZM27.7388 35.7242C28.2885 35.7242 28.8501 35.7344 29.3998 35.7242C30.069 35.714 30.5231 35.337 30.5231 34.797C30.535 34.257 30.0929 33.8596 29.4237 33.8596C28.3243 33.8393 27.213 33.8393 26.1017 33.8596C25.4325 33.8698 24.9904 34.2672 24.9904 34.797C25.0023 35.3268 25.4564 35.714 26.1137 35.7242C26.6633 35.7344 27.2011 35.7242 27.7388 35.7242Z" fill="black"/>
<path d="M15.6339 24.8324C14.8333 24.6185 14.0446 24.5064 13.3874 24.2007C11.7861 23.4773 11.0094 22.2649 10.9974 20.7264C10.9855 18.1384 10.9735 15.5505 10.9974 12.9625C11.0213 10.6191 12.9811 8.9991 15.7414 8.9991C20.2703 8.98891 24.7992 8.98891 29.3161 8.9991C32.0406 8.9991 34.0004 10.6089 34.0362 12.9422C34.0721 15.5403 34.0721 18.1384 34.0362 20.7366C34.0004 23.08 32.0287 24.6898 29.2803 24.7C27.4759 24.7102 25.6596 24.6898 23.8552 24.7102C23.6162 24.7102 23.3294 24.8121 23.1621 24.9547C21.8955 26.0042 20.6646 27.074 19.398 28.1234C18.2747 29.0404 16.4584 28.7449 15.849 27.5325C15.7056 27.237 15.6578 26.8906 15.6339 26.5645C15.61 25.9532 15.6339 25.3419 15.6339 24.8324ZM17.7848 26.7479C17.8206 26.7683 17.8565 26.7785 17.8923 26.7989C18.0118 26.7072 18.1313 26.6155 18.2389 26.5238C19.5055 25.454 20.7722 24.3943 22.015 23.3143C22.3854 22.9883 22.7917 22.8558 23.3294 22.8558C25.2891 22.8762 27.2369 22.866 29.1966 22.866C30.9174 22.866 31.8972 22.0305 31.8972 20.5735C31.8972 18.0875 31.8972 15.6014 31.8972 13.1255C31.8972 11.6584 30.9293 10.8433 29.1966 10.8433C24.7634 10.8433 20.3301 10.8433 15.8848 10.8433C14.0924 10.8433 13.1484 11.6482 13.1364 13.1765C13.1364 15.632 13.1364 18.0977 13.1364 20.5532C13.1364 20.7162 13.1364 20.8894 13.1603 21.0524C13.2798 21.9694 14.0565 22.6928 15.12 22.8354C15.5383 22.8966 15.9804 22.8864 16.4106 22.8864C17.4024 22.8966 17.7609 23.1921 17.7609 24.0377C17.7848 24.9241 17.7848 25.8309 17.7848 26.7479Z" fill="black"/>
<path d="M22.5168 15.632C23.3772 15.6218 24.118 16.2535 24.118 16.9871C24.118 17.7207 23.3772 18.3524 22.5168 18.3422C21.6684 18.332 20.9515 17.7308 20.9395 16.9973C20.9156 16.2738 21.6445 15.6421 22.5168 15.632Z" fill="black"/>
<path d="M15.7056 17.0073C15.6936 16.2635 16.4106 15.642 17.2829 15.6318C18.1552 15.6318 18.8722 16.2432 18.8722 16.9869C18.8722 17.7205 18.1791 18.3217 17.3188 18.342C16.4584 18.3624 15.7175 17.7511 15.7056 17.0073Z" fill="black"/>
<path d="M29.3281 16.9869C29.3281 17.7307 28.5992 18.3522 27.7269 18.342C26.8546 18.3319 26.1496 17.7205 26.1615 16.9666C26.1735 16.233 26.8785 15.6318 27.7269 15.6318C28.6112 15.6318 29.3281 16.2432 29.3281 16.9869Z" fill="black"/>
</svg>
