<svg width="42" height="42" viewBox="0 0 42 42" fill="none" xmlns="http://www.w3.org/2000/svg">
<g clip-path="url(#clip0_44_270)">
<path d="M0 5.55879C0.10175 5.19624 0.225217 4.84018 0.36973 4.49253C0.740585 3.79526 1.36201 3.26535 2.10811 3.01018C4.43676 2.06745 6.76541 1.12473 9.08108 0.208012C9.45035 0.0378906 9.85618 -0.0370429 10.2617 -0.00997904C10.6672 0.0170848 11.0595 0.145288 11.403 0.36298C11.7465 0.580672 12.0303 0.880951 12.2286 1.23653C12.4269 1.59211 12.5334 1.99171 12.5384 2.39903C12.5384 2.77612 12.5838 3.15971 12.5838 3.54331C12.5838 15.2938 12.5838 27.0421 12.5838 38.7882C12.5933 39.2931 12.5299 39.7968 12.3957 40.2836C12.2728 40.7214 12.0283 41.1153 11.6907 41.4192C11.353 41.7231 10.9362 41.9245 10.4886 42H9.76216C9.54811 41.9219 9.32757 41.8569 9.11351 41.7724C6.75892 40.8362 4.41081 39.9 2.06919 38.9442C1.36293 38.7054 0.772358 38.2086 0.415135 37.5529C0.253238 37.1805 0.114593 36.7983 0 36.4086L0 5.55879ZM11.2022 20.987V3.25074C11.2022 2.97767 11.2022 2.70461 11.1568 2.43154C11.1631 2.25217 11.1222 2.07429 11.0381 1.91583C10.954 1.75738 10.8297 1.62395 10.6778 1.529C10.5258 1.43405 10.3515 1.38094 10.1726 1.37503C9.99361 1.36912 9.81625 1.41061 9.65838 1.49532C7.28432 2.43154 4.92324 3.40027 2.52324 4.3495C2.17662 4.47416 1.87977 4.70831 1.67739 5.01669C1.475 5.32508 1.37804 5.69101 1.40108 6.0594C1.40108 6.23495 1.40108 6.41699 1.40108 6.59253C1.40108 16.1888 1.40108 25.7873 1.40108 35.3879C1.40108 35.6089 1.40108 35.83 1.40108 36.038C1.3991 36.3767 1.50232 36.7077 1.69642 36.9849C1.89052 37.2622 2.16588 37.4721 2.48432 37.5854C2.88649 37.7414 3.28216 37.93 3.69081 38.0925C5.64973 38.8857 7.61297 39.6724 9.58054 40.4526C9.7441 40.5513 9.93165 40.6028 10.1226 40.6016C10.3135 40.6004 10.5003 40.5464 10.6626 40.4456C10.8249 40.3447 10.9562 40.201 11.0423 40.0302C11.1283 39.8594 11.1657 39.6681 11.1503 39.4774C11.1503 39.2173 11.1957 38.9572 11.1957 38.6972L11.2022 20.987Z" fill="#1B3D5C"/>
<path d="M41.9999 21.1559C41.8702 21.3441 41.7294 21.5243 41.5783 21.6956L35.0269 28.2556C34.9332 28.3551 34.8312 28.4465 34.7221 28.5287C34.6562 28.5855 34.5796 28.6284 34.4969 28.6549C34.4141 28.6815 34.3269 28.6911 34.2404 28.6832C34.1539 28.6753 34.0699 28.6501 33.9933 28.609C33.9167 28.568 33.8491 28.5119 33.7945 28.4442C33.6795 28.3233 33.6153 28.1626 33.6153 27.9956C33.6153 27.8285 33.6795 27.6679 33.7945 27.547C33.8789 27.4395 33.9722 27.3395 34.0734 27.2479L39.2626 22.0857L39.6518 21.6761H16.5275C16.3366 21.6851 16.1453 21.6742 15.9567 21.6435C15.8044 21.6172 15.6664 21.5373 15.5677 21.4181C15.469 21.2989 15.416 21.1483 15.4183 20.9934C15.4055 20.845 15.4472 20.6971 15.5356 20.5773C15.624 20.4576 15.753 20.3744 15.8983 20.3432C16.1109 20.2945 16.3291 20.2748 16.5469 20.2847H39.5675L39.2042 19.8881C37.4745 18.1544 35.7448 16.4336 34.015 14.7259C33.9052 14.6233 33.8033 14.5124 33.7102 14.3943C33.6043 14.2644 33.5526 14.0985 33.5659 13.9313C33.5792 13.7641 33.6565 13.6086 33.7815 13.4971C33.8945 13.3737 34.0506 13.2987 34.2174 13.2878C34.3841 13.2769 34.5487 13.3309 34.6766 13.4386C34.7858 13.5208 34.8878 13.6122 34.9815 13.7117L41.5329 20.2717C41.6821 20.4213 41.8183 20.5903 41.961 20.7528L41.9999 21.1559Z" fill="#1B3D5C"/>
<path d="M27.9958 11.3322V16.4229C28.0121 16.585 28.0121 16.7484 27.9958 16.9105C28.0079 17.0829 27.9511 17.2531 27.838 17.3835C27.7248 17.514 27.5646 17.5941 27.3926 17.6061C27.2206 17.6182 27.0508 17.5613 26.9206 17.4479C26.7905 17.3345 26.7106 17.1739 26.6985 17.0015C26.6532 16.8166 26.6335 16.6262 26.6402 16.4359C26.6402 13.1526 26.6012 9.86931 26.6402 6.58602C26.6636 6.25898 26.6163 5.93072 26.5015 5.62371C26.3866 5.3167 26.2069 5.0382 25.9746 4.80728C25.7424 4.57635 25.4631 4.39846 25.1559 4.28579C24.8487 4.17311 24.5208 4.1283 24.1948 4.15444C21.1202 4.19995 18.0456 4.15444 14.9645 4.15444C14.8158 4.17082 14.6657 4.17082 14.5169 4.15444C14.3611 4.13236 14.2185 4.05423 14.1159 3.93461C14.0133 3.815 13.9575 3.66205 13.9591 3.50429C13.9404 3.34615 13.9803 3.18664 14.0712 3.05602C14.162 2.92539 14.2976 2.83273 14.4521 2.79562C14.6062 2.76815 14.7632 2.76159 14.9191 2.77612H24.2596C24.7572 2.74284 25.2561 2.81623 25.7232 2.99141C26.1902 3.16659 26.6146 3.43952 26.9681 3.79203C27.3217 4.14454 27.5962 4.56852 27.7734 5.03572C27.9506 5.50292 28.0264 6.00262 27.9958 6.5015C28.0023 8.10739 27.9958 9.75228 27.9958 11.3322Z" fill="#1B3D5C"/>
<path d="M27.9957 30.6547C27.9957 32.2801 27.9957 33.9055 27.9957 35.5374C28.0339 36.3454 27.789 37.1413 27.3032 37.7872C26.8175 38.4332 26.1217 38.8885 25.3362 39.0742C24.9772 39.1591 24.6089 39.1984 24.24 39.1913C21.1654 39.1913 18.0908 39.1913 15.0162 39.1913C14.8661 39.1944 14.716 39.1814 14.5687 39.1523C14.4047 39.128 14.2561 39.0417 14.1536 38.9112C14.051 38.7806 14.0023 38.6156 14.0173 38.4501C14.0173 38.2777 14.0857 38.1123 14.2073 37.9904C14.329 37.8684 14.4939 37.7999 14.666 37.7999C14.8172 37.7901 14.9688 37.7901 15.12 37.7999H24.2725C24.7823 37.8453 25.2915 37.7054 25.707 37.4058C26.1226 37.1063 26.4169 36.667 26.5362 36.168C26.5851 35.9001 26.6047 35.6276 26.5946 35.3554C26.5946 32.0829 26.5946 28.8148 26.5946 25.551C26.588 25.3607 26.6076 25.1703 26.653 24.9854C26.665 24.813 26.7449 24.6524 26.8751 24.539C27.0053 24.4256 27.175 24.3687 27.3471 24.3807C27.5191 24.3928 27.6793 24.4729 27.7924 24.6034C27.9055 24.7338 27.9623 24.904 27.9503 25.0764C27.9632 25.2257 27.9632 25.3758 27.9503 25.525L27.9957 30.6547Z" fill="#1B3D5C"/>
<path d="M9.78789 21C9.78789 21.6957 9.78789 22.3913 9.78789 23.087C9.79321 23.1756 9.78036 23.2644 9.75015 23.3478C9.71994 23.4312 9.67301 23.5076 9.61224 23.5722C9.55147 23.6367 9.47815 23.6881 9.3968 23.7232C9.31545 23.7583 9.2278 23.7763 9.13924 23.7762C8.9621 23.7767 8.79135 23.7099 8.66137 23.5892C8.53139 23.4686 8.45183 23.3031 8.4387 23.126C8.43254 23.072 8.43254 23.0175 8.4387 22.9635C8.4387 21.6632 8.4387 20.3629 8.4387 19.03C8.43222 18.4969 8.6787 18.2043 9.08087 18.2043C9.48303 18.2043 9.76195 18.5034 9.76843 19.0365C9.76843 19.6867 9.76843 20.3369 9.76843 20.987L9.78789 21Z" fill="#1B3D5C"/>
</g>
<defs>
<clipPath id="clip0_44_270">
<rect width="42" height="42" fill="white"/>
</clipPath>
</defs>
</svg>
