<?xml version="1.0" encoding="utf-8"?>
<!-- Generator: Adobe Illustrator 26.0.3, SVG Export Plug-In . SVG Version: 6.00 Build 0)  -->
<svg version="1.1" id="圖層_1" xmlns="http://www.w3.org/2000/svg" xmlns:xlink="http://www.w3.org/1999/xlink" x="0px" y="0px"
	 viewBox="0 0 512 512" style="enable-background:new 0 0 512 512;" xml:space="preserve">
<style type="text/css">
	.st0{fill:#174C74;}
	.st1{fill:#FFFFFF;}
</style>
<circle class="st0" cx="256" cy="254" r="178"/>
<path class="st1" d="M375,357c-6.1,0-12.2,0-18.5,0c-0.7-31.7-13-57.8-37.3-77.9c-19.6-16.2-42.5-23.5-67.9-22.4
	c-17.3,0.7-33.3,5.7-48,14.9c-14.7,9.2-26.4,21.4-35,36.5c-8.5,15.1-12.6,31.3-12.8,48.7c-6.2,0-12.3,0-18.6,0
	c0.3-25.3,7.4-48.3,22-68.8c14.6-20.5,33.9-34.9,57.9-43.6c-0.7-0.6-1.1-1-1.6-1.3c-23.2-17.3-33.4-45.7-25.5-73.6
	c7.3-25.7,24.5-41.8,50.4-48.7c3.6-1,7.4-1.3,11.2-1.9c3.1,0,6.2,0,9.3,0c3.7,0.6,7.5,1,11.2,1.9c25.8,6.9,43.3,23,50.3,48.7
	c7.4,26.9-0.1,50.3-20.4,69.5c-2,1.9-4.2,3.5-6.5,5.4c0.7,0.3,1.1,0.6,1.6,0.7c16.1,5.9,30.3,14.8,42.5,26.9
	c18.1,17.8,29.5,39.2,33.9,64.2c0.8,4.5,1.2,9.2,1.9,13.7C375,352.4,375,354.7,375,357z M256,137.6c-27.6,0-50.1,22.5-50.2,50.1
	c-0.1,27.6,22.6,50.3,50.2,50.3c27.6,0,50.1-22.5,50.2-50.1C306.3,160.3,283.6,137.6,256,137.6z"/>
</svg>
