<svg width="71" height="61" viewBox="0 0 71 61" fill="none" xmlns="http://www.w3.org/2000/svg">
<path d="M70.9889 40.6095C70.6502 41.2386 70.12 41.443 69.4573 41.5059C67.8521 41.6474 66.5267 43.0628 66.35 44.7611C66.3353 44.9498 66.3353 45.1543 66.2911 45.343C66.1585 46.0192 65.6726 46.4595 65.0982 46.4281C64.5239 46.3966 64.0526 45.9406 64.0085 45.2486C63.9201 44.1164 63.5814 43.1099 62.7272 42.3708C62.4327 42.1192 62.1087 41.9305 61.6522 41.6317C61.6522 42.1035 61.6522 42.3865 61.6522 42.6696C61.6522 47.8748 61.6522 53.0801 61.6522 58.2853C61.6522 59.7635 61.2988 60.1567 59.9145 60.1567C43.9508 60.1567 27.9725 60.1567 12.0088 60.1567C10.6392 60.1567 10.2858 59.7635 10.2858 58.2696C10.2858 46.8369 10.2858 35.4043 10.2858 23.9717C10.2858 23.6886 10.2858 23.4055 10.2858 22.9967C9.07823 23.5471 8.37135 24.3963 8.07682 25.6229C8.00318 25.9531 7.97373 26.2991 7.92955 26.6293C7.84119 27.3055 7.44357 27.6987 6.83978 27.7301C6.22127 27.7616 5.80892 27.3842 5.67638 26.7237C5.58802 26.2991 5.57329 25.8588 5.47021 25.4342C5.08732 23.9874 3.87973 22.918 2.49543 22.808C1.83274 22.7608 1.30258 22.5406 0.963867 21.9116C0.963867 21.6757 0.963867 21.4241 0.963867 21.1882C1.24367 20.6064 1.68547 20.3233 2.31871 20.2447C4.35099 19.9773 5.38185 18.8136 5.61747 16.6435C5.70583 15.7786 6.13291 15.3068 6.7956 15.3225C7.47303 15.3225 7.85592 15.7786 7.959 16.6592C8.15045 18.3576 8.88678 19.4427 10.2858 19.9773C10.2858 19.6628 10.2858 19.3955 10.2858 19.1124C10.2858 13.4826 10.2858 7.86849 10.2858 2.23867C10.2858 0.666096 10.6245 0.320129 12.1119 0.320129C28.0166 0.320129 43.9214 0.320129 59.8261 0.320129C61.3135 0.320129 61.6522 0.681822 61.6522 2.2544C61.6522 14.0802 61.6522 25.9059 61.6522 37.7317C61.6522 38.0148 61.6522 38.3136 61.6522 38.7067C62.8745 38.1878 63.5667 37.3228 63.8612 36.0648C63.9348 35.7345 63.9496 35.3886 64.0085 35.0583C64.1115 34.4293 64.465 34.0519 65.0688 34.0204C65.6726 33.989 66.0702 34.3035 66.2322 34.9168C66.2764 35.1055 66.3058 35.2942 66.3205 35.4829C66.4973 37.3386 67.6607 38.6595 69.4131 38.9111C70.0905 39.0055 70.6649 39.1628 70.9594 39.8861C70.9889 40.122 70.9889 40.3736 70.9889 40.6095ZM59.2959 50.9414C58.7952 51.1143 58.324 51.3502 57.8086 51.4446C56.277 51.6962 55.0989 52.7498 54.7602 54.2752C54.6718 54.6526 54.6571 55.0458 54.5834 55.4232C54.4509 56.0522 54.0533 56.3825 53.4642 56.3825C52.9046 56.3825 52.5217 56.0522 52.3744 55.4704C52.3155 55.2345 52.2861 54.9986 52.2566 54.747C52.0799 53.1744 51.0785 51.9321 49.6353 51.5704C49.3113 51.4918 48.9579 51.476 48.6192 51.3974C48.0301 51.2716 47.6178 50.7684 47.6472 50.1708C47.6767 49.5418 47.9859 49.1172 48.575 48.9756C48.7664 48.9285 48.9873 48.9285 49.1788 48.897C50.6809 48.6926 51.8737 47.5446 52.1977 46.0192C52.2714 45.6418 52.2714 45.2486 52.3597 44.8712C52.507 44.2736 52.8899 43.9748 53.4642 43.9748C54.0238 43.9748 54.4067 44.2894 54.554 44.8869C54.6129 45.0914 54.6423 45.3115 54.6571 45.5317C54.8632 47.3716 56.0414 48.6454 57.7349 48.9127C58.2651 48.9914 58.7658 49.2587 59.237 49.416C59.237 34.0047 59.237 18.4205 59.237 2.89915C58.0589 2.58464 57.249 2.97778 56.4095 3.87415C51.1963 9.53543 45.9242 15.1181 40.6668 20.7322C39.8568 21.5971 39.1647 21.7543 38.6051 21.1568C38.0455 20.5592 38.1633 19.8673 39.0174 18.9709C43.833 13.8286 48.6486 8.68623 53.4789 3.54391C53.6557 3.3552 53.8176 3.15077 54.0975 2.83625C53.0224 2.83625 52.1388 2.8677 51.2552 2.82053C50.6809 2.78907 50.2833 2.97778 49.8857 3.4181C46.7636 6.78342 43.6121 10.133 40.4606 13.4826C39.8127 14.1745 39.1058 14.2217 38.6051 13.6713C38.1191 13.1209 38.178 12.4447 38.7965 11.737C38.8996 11.6112 39.0174 11.5011 39.1352 11.3753C41.5946 8.74914 44.0686 6.10721 46.528 3.48101C46.69 3.30802 46.8372 3.11931 47.0434 2.8677C35.4978 2.8677 24.0846 2.8677 12.6421 2.8677C12.6421 5.60398 12.6421 8.29309 12.6421 10.8249C13.128 10.652 13.5993 10.3689 14.1 10.2903C15.8525 10.0229 17.0159 8.81204 17.222 6.90922C17.2515 6.68906 17.2809 6.4689 17.3251 6.26447C17.4724 5.66689 17.8847 5.3681 18.4296 5.3681C18.9745 5.3681 19.3721 5.68261 19.5194 6.28019C19.5783 6.51608 19.6077 6.75197 19.6372 7.00358C19.8139 8.59188 20.8742 9.88139 22.3027 10.2274C22.6562 10.306 23.0243 10.3217 23.3778 10.4003C23.9374 10.5419 24.2172 10.9822 24.2172 11.5798C24.2172 12.1616 23.9374 12.6019 23.363 12.7435C23.1421 12.8064 22.9212 12.8378 22.6856 12.8693C21.0215 13.0737 19.7992 14.379 19.6077 16.1402C19.5783 16.4076 19.5488 16.6749 19.4752 16.9265C19.3132 17.4769 18.9156 17.76 18.4002 17.76C17.87 17.76 17.4724 17.4769 17.3104 16.9265C17.222 16.6277 17.2073 16.3132 17.1631 15.9987C16.9864 14.4576 15.7494 13.1209 14.3209 12.8536C13.7171 12.7435 13.128 12.4919 12.5832 12.3189C12.5832 27.2898 12.5832 42.4337 12.5832 57.672C12.8777 57.672 13.1133 57.672 13.3637 57.672C16.957 57.672 20.565 57.6563 24.1583 57.6877C24.6737 57.6877 25.0419 57.5304 25.41 57.1373C30.8147 51.3502 36.2341 45.5631 41.6388 39.7918C41.8302 39.5874 42.0216 39.3672 42.2573 39.2099C42.7285 38.8797 43.2292 38.9269 43.6416 39.3357C44.0686 39.7603 44.157 40.3107 43.8477 40.8611C43.7005 41.1285 43.4796 41.3486 43.2734 41.5688C38.4578 46.7111 33.6422 51.8535 28.8266 57.0115C28.6646 57.1845 28.5026 57.3732 28.2228 57.6877C29.342 57.6877 30.2698 57.6563 31.1976 57.7034C31.6836 57.7192 32.037 57.5619 32.3904 57.1845C35.4683 53.8663 38.5756 50.5639 41.6682 47.2615C41.8596 47.0571 42.0658 46.8527 42.2867 46.6954C42.8022 46.3337 43.3029 46.4281 43.7152 46.8841C44.1275 47.3402 44.157 47.8906 43.833 48.4252C43.7005 48.6454 43.509 48.8341 43.3323 49.0228C40.8435 51.6962 38.34 54.3538 35.8365 57.0272C35.6745 57.2002 35.5272 57.3889 35.3063 57.6405C43.3618 57.6405 51.27 57.6405 59.2223 57.6405C59.2959 55.3131 59.2959 53.0486 59.2959 50.9414ZM18.4885 10.5104C18.1498 10.8407 17.7817 11.2181 17.5755 11.4225C17.8847 11.8471 18.194 12.2874 18.4591 12.6491C18.842 12.256 19.1954 11.8943 19.5047 11.564C19.1659 11.2181 18.8125 10.8564 18.4885 10.5104ZM6.91342 20.5592C6.5158 20.8894 6.10345 21.2197 5.82365 21.4398C6.17709 21.8644 6.5158 22.2576 6.82506 22.635C7.14904 22.2733 7.50248 21.8801 7.81174 21.5499C7.50248 21.2039 7.13431 20.7951 6.91342 20.5592ZM65.113 41.3015C65.4958 40.9083 65.8493 40.5466 66.1291 40.2636C65.8051 39.8861 65.4517 39.4773 65.1571 39.147C64.8037 39.4773 64.4208 39.8547 64.0968 40.1535C64.465 40.5781 64.8037 40.9555 65.113 41.3015ZM52.5512 50.1079C52.8604 50.5168 53.1697 50.9414 53.42 51.2716C53.8324 50.8785 54.2005 50.5325 54.4656 50.2809C54.1122 49.8877 53.7735 49.4789 53.4348 49.1014C53.1402 49.4474 52.8015 49.8248 52.5512 50.1079Z" fill="black"/>
</svg>
