<?xml version="1.0" encoding="utf-8"?>
<!-- Generator: Adobe Illustrator 26.0.3, SVG Export Plug-In . SVG Version: 6.00 Build 0)  -->
<svg version="1.1" id="圖層_1" xmlns="http://www.w3.org/2000/svg" xmlns:xlink="http://www.w3.org/1999/xlink" x="0px" y="0px"
	 viewBox="0 0 512 512" style="enable-background:new 0 0 512 512;" xml:space="preserve">
<style type="text/css">
	.st0{fill:#174C74;}
</style>
<g>
	<path d="M432.5,152.6c0,74.7,0,149.4,0,224c-0.2,0.3-0.4,0.6-0.5,0.9c-4.4,21.7-19.6,34.2-41.7,34.2c-89.5,0-179,0-268.4,0
		c-3.6,0-7.4-0.2-10.9-1c-19-4.3-31.3-20.2-31.3-40.3c0-83.7,0-167.5,0-251.2c0-12.8,6.1-18.9,19-18.9c91.7,0,183.3,0,275,0
		c1.1,0,2.3,0,3.4,0c9,0.6,15.4,7.1,15.5,16.2c0.1,6.8,0,13.6,0,20.3c0,1.1,0,2.2,0,3.4c8.1,0,15.7,0,23.3,0
		c6.2,0,11.1,2.6,14.4,7.9C431.1,149.5,431.7,151.1,432.5,152.6z M392.5,156.3c0,1.3,0,2.2,0,3.1c0,66.1,0,132.1,0,198.2
		c0,4.8,0.5,5.3,5.6,6.5c4.1,1,6.5,4.2,6.2,8.3c-0.3,3.9-3.1,6.8-7.1,7.1c-1.9,0.1-3.9,0-5.8-0.5c-9.6-2.6-14.9-10.2-14.9-21.3
		c0-78.9,0-157.8,0-236.8c0-1.5,0-2.9,0-4.5c-93.9,0-187.3,0-281,0c-0.1,1.3-0.2,2.4-0.2,3.5c0,83.3,0,166.6,0,249.9
		c0,15.8,10.1,26,25.8,26c89.8,0,179.7,0,269.5,0c15.7,0,25.8-10.2,25.8-26c0-70,0-139.9,0-209.9c0-1.2-0.1-2.4-0.2-3.6
		C408.3,156.3,400.6,156.3,392.5,156.3z"/>
	<path d="M175.8,188.1c12.6,0,25.3,0,37.9,0c7.5,0,10.4,2.9,10.4,10.4c0,25.3,0,50.5,0,75.8c0,7.4-3,10.4-10.5,10.4
		c-25.3,0-50.5,0-75.8,0c-7.3,0-10.3-2.9-10.3-10.2c0-25.5,0-51,0-76.5c0-7.2,2.9-10,10.1-10C150.3,188.1,163.1,188.1,175.8,188.1z
		 M143.6,204.3c0,21.6,0,42.8,0,64.2c21.5,0,42.8,0,64.2,0c0-21.5,0-42.8,0-64.2C186.3,204.3,165.1,204.3,143.6,204.3z"/>
	<path d="M236.1,148.3c32.4,0,64.8,0,97.2,0c1.6,0,3.2,0,4.8,0.2c3.7,0.6,6.3,3.6,6.5,7.4c0.2,3.7-2.2,6.9-5.9,7.8
		c-1.5,0.4-3.2,0.5-4.8,0.5c-65.2,0-130.5,0-195.7,0c-6.5,0-9.9-2.4-10.5-7c-0.5-4.5,2.3-8.2,6.8-8.7c1.5-0.2,3-0.2,4.5-0.2
		C171.3,148.3,203.7,148.3,236.1,148.3z"/>
	<path d="M296.2,244.1c-12.9,0-25.7,0.1-38.6,0c-6.6,0-10.3-3.9-9.3-9.4c0.6-3.3,2.6-5.3,5.7-6.1c1.5-0.4,3.2-0.4,4.8-0.4
		c24.9,0,49.8,0,74.8,0c0.6,0,1.1,0,1.7,0c5.8,0.2,9.2,3.3,9.2,8.1c-0.1,4.8-3.5,7.9-9.3,7.9C322.2,244.1,309.2,244.1,296.2,244.1z"
		/>
	<path d="M296.7,267.9c12.6,0,25.3,0,37.9,0c5.9,0,9.2,2.5,9.8,7c0.6,4.3-2.1,7.9-6.4,8.7c-1.5,0.3-3,0.3-4.5,0.3
		c-24.8,0-49.6,0-74.4,0c-1.5,0-3-0.1-4.5-0.3c-3.9-0.7-6.5-3.8-6.5-7.7c0-3.7,2.5-6.8,6.2-7.6c1.6-0.3,3.2-0.4,4.8-0.4
		C271.6,267.9,284.2,267.9,296.7,267.9z"/>
	<path d="M296.3,188.1c12.9,0,25.7,0,38.6,0c5.8,0,9.1,2.6,9.5,7.3c0.3,3.9-2,7.3-5.8,8.2c-1.4,0.3-2.9,0.5-4.4,0.5
		c-25.3,0-50.5,0.1-75.8-0.1c-2.4,0-5-0.7-7.1-1.9c-3-1.7-3.7-4.9-2.9-8.1c0.8-3,2.8-5,5.9-5.6c1.6-0.3,3.2-0.3,4.8-0.3
		C271.5,188.1,283.9,188.1,296.3,188.1z"/>
	<path d="M296.2,323.9c-12.9,0-25.7,0.1-38.6,0c-6.7,0-10.4-4.1-9.2-9.8c0.8-3.8,3.9-6.1,8.8-6.2c3.6-0.1,7.1,0,10.7,0
		c21.9,0,43.9,0,65.8,0c7.1,0,11,2.9,10.9,8.2c-0.1,5.2-3.8,7.9-10.8,7.9C321.2,323.9,308.7,323.9,296.2,323.9z"/>
	<path d="M175.8,363.7c-12.7,0-25.5,0.1-38.2-0.1c-2.3,0-4.8-0.6-6.8-1.7c-2.9-1.6-3.6-4.6-3-7.8c0.6-3.1,2.5-5.1,5.6-5.8
		c1.3-0.3,2.7-0.5,4.1-0.5c25.5,0,51,0,76.5,0c1.4,0,2.8,0.2,4.1,0.5c3.7,0.9,6.1,4.1,5.9,7.8c-0.2,3.9-2.9,7.1-6.8,7.4
		c-3.3,0.3-6.6,0.2-10,0.2C196.7,363.8,186.3,363.7,175.8,363.7z"/>
	<path d="M296.3,363.7c-13,0-26,0-38.9,0c-6.5,0-10.1-4-9-9.6c0.7-3.7,3.7-6.1,8.3-6.3c3.1-0.1,6.2,0,9.3,0c22.6,0,45.2,0,67.9,0
		c1.7,0,3.5,0.2,5.1,0.6c3.4,0.9,5.7,4.2,5.5,7.8c-0.2,3.6-2.7,6.7-6.2,7.3c-1.5,0.3-3,0.3-4.5,0.3
		C321.4,363.8,308.9,363.7,296.3,363.7z"/>
	<path d="M175.7,323.9c-12.9,0-25.7,0-38.6,0c-5.7,0-9-2.5-9.5-7c-0.5-4.3,1.9-7.6,6.1-8.6c1.3-0.3,2.7-0.4,4.1-0.4
		c25.3,0,50.5,0,75.8,0c5.7,0,9,2,9.9,6c1.2,4.8-1.6,9.2-6.6,9.7c-3.9,0.4-7.8,0.3-11.7,0.3C195.5,323.9,185.6,323.9,175.7,323.9z"
		/>
</g>
</svg>
