<svg width="40" height="36" viewBox="0 0 40 36" fill="none" xmlns="http://www.w3.org/2000/svg">
<path d="M39.3047 6.69053C39.3047 14.8608 39.3047 23.0312 39.3047 31.1905C39.2828 31.2233 39.2609 31.2562 39.25 31.289C38.7687 33.6624 37.1062 35.0296 34.689 35.0296C24.9 35.0296 15.1109 35.0296 5.33279 35.0296C4.93904 35.0296 4.52341 35.0077 4.1406 34.9202C2.06248 34.4499 0.717163 32.7108 0.717163 30.5124C0.717163 21.3577 0.717163 12.1921 0.717163 3.0374C0.717163 1.6374 1.38435 0.970215 2.79529 0.970215C12.825 0.970215 22.8437 0.970215 32.8734 0.970215C32.9937 0.970215 33.125 0.970215 33.2453 0.970215C34.2297 1.03584 34.9297 1.74678 34.9406 2.74209C34.9515 3.48584 34.9406 4.22959 34.9406 4.9624C34.9406 5.08272 34.9406 5.20303 34.9406 5.33428C35.8265 5.33428 36.6578 5.33428 37.489 5.33428C38.1672 5.33428 38.7031 5.61865 39.064 6.19834C39.1515 6.35147 39.2172 6.52647 39.3047 6.69053ZM34.9297 7.09522C34.9297 7.2374 34.9297 7.33584 34.9297 7.43428C34.9297 14.664 34.9297 21.8827 34.9297 29.1124C34.9297 29.6374 34.9843 29.6921 35.5422 29.8233C35.9906 29.9327 36.2531 30.2827 36.2203 30.7312C36.1875 31.1577 35.8812 31.4749 35.4437 31.5077C35.2359 31.5187 35.0172 31.5077 34.8093 31.453C33.7593 31.1687 33.1797 30.3374 33.1797 29.1233C33.1797 20.4937 33.1797 11.864 33.1797 3.22334C33.1797 3.05928 33.1797 2.90615 33.1797 2.73115C22.9093 2.73115 12.6937 2.73115 2.44529 2.73115C2.43435 2.87334 2.42341 2.99365 2.42341 3.11396C2.42341 12.2249 2.42341 21.3358 2.42341 30.4468C2.42341 32.1749 3.5281 33.2905 5.24529 33.2905C15.0672 33.2905 24.9 33.2905 34.7218 33.2905C36.439 33.2905 37.5437 32.1749 37.5437 30.4468C37.5437 22.7905 37.5437 15.1452 37.5437 7.48896C37.5437 7.35771 37.5328 7.22647 37.5218 7.09522C36.6578 7.09522 35.8156 7.09522 34.9297 7.09522Z" fill="black"/>
<path d="M11.2281 10.5734C12.6063 10.5734 13.9953 10.5734 15.3734 10.5734C16.1938 10.5734 16.5109 10.8906 16.5109 11.7109C16.5109 14.4781 16.5109 17.2344 16.5109 20.0016C16.5109 20.8109 16.1828 21.1391 15.3625 21.1391C12.5953 21.1391 9.83906 21.1391 7.07188 21.1391C6.27344 21.1391 5.94531 20.8219 5.94531 20.0234C5.94531 17.2344 5.94531 14.4453 5.94531 11.6563C5.94531 10.8688 6.2625 10.5625 7.05 10.5625C8.43906 10.5734 9.83906 10.5734 11.2281 10.5734ZM7.70625 12.3453C7.70625 14.7078 7.70625 17.0266 7.70625 19.3672C10.0578 19.3672 12.3875 19.3672 14.7281 19.3672C14.7281 17.0156 14.7281 14.6859 14.7281 12.3453C12.3766 12.3453 10.0578 12.3453 7.70625 12.3453Z" fill="black"/>
<path d="M17.8234 6.22021C21.3671 6.22021 24.9108 6.22021 28.4546 6.22021C28.6296 6.22021 28.8046 6.22021 28.9796 6.24209C29.3843 6.30771 29.6687 6.63584 29.6905 7.05146C29.7124 7.45615 29.4499 7.80615 29.0452 7.90459C28.8812 7.94834 28.6952 7.95928 28.5202 7.95928C21.389 7.95928 14.2468 7.95928 7.11555 7.95928C6.40461 7.95928 6.03273 7.69678 5.96711 7.19365C5.91242 6.70146 6.21867 6.29678 6.71086 6.24209C6.87492 6.22021 7.03898 6.22021 7.20305 6.22021C10.7359 6.22021 14.2796 6.22021 17.8234 6.22021Z" fill="black"/>
<path d="M24.3969 16.6983C22.986 16.6983 21.586 16.7092 20.175 16.6983C19.4531 16.6983 19.0485 16.2717 19.1578 15.6702C19.2235 15.3092 19.4422 15.0905 19.7813 15.003C19.9453 14.9592 20.1313 14.9592 20.3063 14.9592C23.0297 14.9592 25.7532 14.9592 28.4875 14.9592C28.5532 14.9592 28.6078 14.9592 28.6735 14.9592C29.3078 14.9811 29.6797 15.3202 29.6797 15.8452C29.6688 16.3702 29.2969 16.7092 28.6625 16.7092C27.2407 16.6983 25.8188 16.6983 24.3969 16.6983Z" fill="black"/>
<path d="M24.4515 19.3015C25.8296 19.3015 27.2187 19.3015 28.5968 19.3015C29.2421 19.3015 29.603 19.575 29.6687 20.0671C29.7343 20.5375 29.439 20.9312 28.9687 21.0187C28.8046 21.0515 28.6405 21.0515 28.4765 21.0515C25.764 21.0515 23.0515 21.0515 20.339 21.0515C20.1749 21.0515 20.0109 21.0406 19.8468 21.0187C19.4202 20.9421 19.1359 20.6031 19.1359 20.1765C19.1359 19.7718 19.4093 19.4328 19.814 19.3453C19.989 19.3125 20.164 19.3015 20.339 19.3015C21.7062 19.3015 23.0843 19.3015 24.4515 19.3015Z" fill="black"/>
<path d="M24.4078 10.5732C25.8187 10.5732 27.2187 10.5732 28.6297 10.5732C29.2641 10.5732 29.625 10.8576 29.6687 11.3717C29.7016 11.7982 29.45 12.1701 29.0344 12.2686C28.8813 12.3014 28.7172 12.3232 28.5531 12.3232C25.7859 12.3232 23.0297 12.3342 20.2625 12.3123C20 12.3123 19.7156 12.2357 19.4859 12.1045C19.1578 11.9186 19.0812 11.5686 19.1687 11.2186C19.2562 10.8904 19.475 10.6717 19.8141 10.6061C19.9891 10.5732 20.1641 10.5732 20.3391 10.5732C21.6953 10.5732 23.0516 10.5732 24.4078 10.5732Z" fill="black"/>
<path d="M24.3969 25.4265C22.986 25.4265 21.586 25.4374 20.175 25.4265C19.4422 25.4265 19.0375 24.9781 19.1688 24.3546C19.2563 23.939 19.5954 23.6874 20.1313 23.6765C20.525 23.6656 20.9079 23.6765 21.3016 23.6765C23.6969 23.6765 26.1032 23.6765 28.4985 23.6765C29.275 23.6765 29.7016 23.9937 29.6907 24.5734C29.6797 25.1421 29.275 25.4374 28.5094 25.4374C27.1313 25.4265 25.7641 25.4265 24.3969 25.4265Z" fill="black"/>
<path d="M11.2281 29.7796C9.83899 29.7796 8.43899 29.7905 7.04993 29.7687C6.79837 29.7687 6.52493 29.703 6.30618 29.5827C5.98899 29.4077 5.91243 29.0796 5.97805 28.7296C6.04368 28.3905 6.25149 28.1718 6.59055 28.0952C6.73274 28.0624 6.88587 28.0405 7.03899 28.0405C9.82805 28.0405 12.6171 28.0405 15.4062 28.0405C15.5593 28.0405 15.7124 28.0624 15.8546 28.0952C16.2593 28.1937 16.5218 28.5437 16.4999 28.9483C16.4781 29.3749 16.1827 29.7249 15.7562 29.7577C15.3952 29.7905 15.0343 29.7796 14.6624 29.7796C13.514 29.7905 12.3765 29.7796 11.2281 29.7796Z" fill="black"/>
<path d="M24.4077 29.7796C22.9858 29.7796 21.564 29.7796 20.153 29.7796C19.4421 29.7796 19.0483 29.3421 19.1687 28.7296C19.2452 28.3249 19.5734 28.0624 20.0765 28.0405C20.4155 28.0296 20.7546 28.0405 21.0937 28.0405C23.5655 28.0405 26.0374 28.0405 28.5202 28.0405C28.7062 28.0405 28.903 28.0624 29.078 28.1061C29.4499 28.2046 29.7015 28.5655 29.6796 28.9593C29.6577 29.353 29.3843 29.6921 29.0015 29.7577C28.8374 29.7905 28.6733 29.7905 28.5093 29.7905C27.153 29.7905 25.7858 29.7796 24.4077 29.7796Z" fill="black"/>
<path d="M11.2172 25.4265C9.80625 25.4265 8.40625 25.4265 6.99531 25.4265C6.37187 25.4265 6.01093 25.1531 5.95625 24.6609C5.90156 24.1906 6.16406 23.8296 6.62343 23.7203C6.76562 23.6875 6.91875 23.6765 7.07187 23.6765C9.83906 23.6765 12.5953 23.6765 15.3625 23.6765C15.9859 23.6765 16.3469 23.8953 16.4453 24.3328C16.5766 24.8578 16.2703 25.339 15.7234 25.3937C15.2969 25.4375 14.8703 25.4265 14.4437 25.4265C13.3828 25.4265 12.3 25.4265 11.2172 25.4265Z" fill="black"/>
</svg>
