<?xml version="1.0" encoding="utf-8"?>
<!-- Generator: Adobe Illustrator 26.0.3, SVG Export Plug-In . SVG Version: 6.00 Build 0)  -->
<svg version="1.1" id="圖層_1" xmlns="http://www.w3.org/2000/svg" xmlns:xlink="http://www.w3.org/1999/xlink" x="0px" y="0px"
	 viewBox="0 0 512 512" style="enable-background:new 0 0 512 512;" xml:space="preserve">
<style type="text/css">
	.st0{fill:#174C74;}
</style>
<path class="st0" d="M463.2,217.2c-2.6,8.6-7.1,15.5-15.6,19.5c-0.9,0.4-1.5,2.6-1.5,4c-0.3,10.9,0.2,21.9-0.7,32.8
	c-2.9,34.9-19,62.4-47.3,82.8c-2.8,2-4.1,3.9-4,7.5c0.2,12,0.1,24,0.1,36c0,8.7-3,11.7-11.6,11.7c-4.3,0-8.6-0.1-12.9,0
	c-4.6,0.1-7.7-1.9-9.7-5.9c-4.3-8.7-8.7-17.3-12.9-26.1c-1.1-2.3-2.3-3-4.9-3c-57.5,0.1-114.9,0.1-172.4,0c-2.4,0-3.6,0.7-4.6,2.8
	c-4.2,8.6-8.6,17.1-12.8,25.7c-2.2,4.5-5.5,6.7-10.6,6.5c-4.4-0.2-8.9,0-13.4,0c-7.3-0.1-10.6-3.3-10.6-10.6
	c-0.1-12.8,0.1-25.6-0.1-38.4c0-1.7-1.1-3.9-2.4-4.9C82.5,334,66.2,302.1,66,261.9c0-7.1-0.1-14.3,0-21.4c0-2.2-0.5-3.5-2.7-4.7
	c-10.9-5.4-16.3-16.7-13.8-28.2c2.5-11.6,12-19.7,24-20.4c2-0.1,4-0.1,6.1-0.1c108.7,0,217.4,0,326.2,0c1.7,0,3.5,0,5.4,0
	c0.1-0.9,0.3-1.6,0.3-2.2c0-16.5,0.1-32.9,0-49.4c0-7.9-4.7-14.3-11.8-16.6c-7.1-2.3-15-0.2-19,6.1c-2.1,3.3-2.8,7.7-3.6,11.7
	c-0.5,2.6,0,5.4-0.3,8.1c-0.4,4.2-3.6,7.2-7.6,7.6c-3.9,0.4-8.2-2.1-8.8-6.2c-1.9-13.3-0.3-26,10.2-35.8c10.6-9.9,23.3-12.4,36.7-7
	c12.9,5.2,20.6,15.3,21.2,29.4c0.7,16.3,0.3,32.6,0.3,49c0,1.6,0,3.2,0,5.3c3.1,0,5.8-0.1,8.4,0c12.7,0.4,21.6,7.2,25.3,19.4
	c0.3,0.9,0.6,1.8,0.9,2.6C463.2,211.8,463.2,214.5,463.2,217.2z M83.4,239.1c0,9.2,0,18.1,0,27c0.1,13,2.6,25.5,8.2,37.2
	c17.9,36.8,47.6,55.9,88.5,56.3c50.6,0.4,101.1,0.1,151.7,0.1c12.7,0,25-1.8,36.7-6.8c31.7-13.4,51.9-36.9,58-70.8
	c2.5-13.8,1.3-28.2,1.8-42.3c0-0.2-0.3-0.4-0.5-0.7c-57.2,0-114.4,0-172,0c0,1.7,0,3.2,0,4.6c0,18.1,0,36.1,0,54.2
	c0,7-4.5,10.7-11.3,9.6c-33.5-5.6-67-11.2-100.4-16.7c-6.5-1.1-9-4-9.1-10.7c-0.1-12.1,0-24.3,0-36.4c0-1.5,0-2.9,0-4.6
	C117.8,239.1,100.9,239.1,83.4,239.1z M152.5,274.6c28.8,4.8,57.3,9.5,85.9,14.3c0-28.6,0-56.5,0-84.4c-28.8,0-57.3,0-85.9,0
	C152.5,227.9,152.5,251.1,152.5,274.6z M256.1,221.4c1.7,0,3,0,4.3,0c58,0,116,0,174,0c1.3,0,2.7,0,4-0.2c5.1-0.7,8.2-5.2,7-10.3
	c-1-4.6-4.4-6.7-10.9-6.7c-58.1,0-116.3,0-174.4,0c-1.3,0-2.6,0.1-4,0.2C256.1,210.1,256.1,215.4,256.1,221.4z M135,204.3
	c-20.4,0-40.4-0.1-60.5,0.1c-3.6,0-6.5,2-7.8,5.5c-1.2,3.2-0.9,6.8,1.9,8.9c2.1,1.6,5.1,2.6,7.7,2.6c18.6,0.2,37.2,0.1,55.7,0.1
	c0.9,0,1.8-0.2,2.9-0.4C135,215.5,135,210.2,135,204.3z M135.4,368.5c0,8.7,0,17,0,25.6c1.1-0.1,2.6,0.1,2.8-0.3
	c3.7-6.8,7.2-13.7,10.8-20.8C144.2,371.4,140.1,370,135.4,368.5z M376.6,395c0-9.6,0-17.9,0-26.5c-4.6,1.5-8.9,3-13.6,4.5
	c3.3,6.7,6.5,13.2,9.9,19.6C373.3,393.5,374.8,393.9,376.6,395z"/>
</svg>
