<svg width="45" height="39" viewBox="0 0 45 39" fill="none" xmlns="http://www.w3.org/2000/svg">
<path d="M20.1269 0.864258C20.9388 0.96581 21.7508 1.03351 22.5492 1.15763C26.4466 1.77823 29.7757 3.27895 32.5634 5.63723C35.094 7.78112 36.7586 10.3199 37.4758 13.265C38.3825 16.966 37.76 20.4978 35.5271 23.8039C34.8099 24.8645 33.9167 25.8236 33.0912 26.8392C33.01 26.8617 32.9423 26.8843 32.8611 26.9069C33.01 26.9746 33.1859 27.0084 33.2942 27.0987C36.9886 30.1227 40.6695 33.1354 44.3369 36.1707C44.594 36.3851 44.7835 36.6785 45 36.9267C45 37.096 45 37.2652 45 37.4345C44.5399 38.2469 43.8497 38.5741 43.0378 38.3033C42.7806 38.2131 42.537 38.0551 42.3341 37.8858C38.6261 34.8505 34.9181 31.804 31.2102 28.7687C31.1019 28.6784 30.9801 28.5881 30.8583 28.4979C30.2629 28.8364 29.6945 29.1862 29.099 29.4908C25.7835 31.2285 22.1432 32.0522 18.2458 31.9281C13.1034 31.7701 8.70523 30.1227 5.13259 27.0197C2.43957 24.6953 0.775048 21.9195 0.220206 18.7262C-0.510561 14.5626 0.572057 10.7487 3.54926 7.36363C6.4182 4.10266 10.2615 2.04904 15.0115 1.20277C15.7558 1.06736 16.5136 1.02223 17.2714 0.93196C17.3932 0.920677 17.5286 0.886825 17.6504 0.864258C18.4759 0.864258 19.3014 0.864258 20.1269 0.864258ZM2.89969 16.3228C2.94028 16.8644 2.92675 17.3158 2.99442 17.7671C3.4004 20.5993 4.69954 23.1156 7.05423 25.1918C11.1817 28.8364 16.2971 30.2017 22.1432 29.2539C27.2721 28.4189 31.1019 25.9591 33.3754 21.9985C35.6624 18.0041 35.5271 13.9758 32.9694 10.1168C30.3441 6.16756 26.1895 3.91084 20.817 3.35794C16.5677 2.91788 12.6703 3.78672 9.24654 5.94189C5.10552 8.57098 3.03501 12.0915 2.89969 16.3228Z" fill="black"/>
</svg>
