<?xml version="1.0" encoding="utf-8"?>
<!-- Generator: Adobe Illustrator 26.0.3, SVG Export Plug-In . SVG Version: 6.00 Build 0)  -->
<svg version="1.1" id="圖層_1" xmlns="http://www.w3.org/2000/svg" xmlns:xlink="http://www.w3.org/1999/xlink" x="0px" y="0px"
	 viewBox="0 0 512 512" style="enable-background:new 0 0 512 512;" xml:space="preserve">
<style type="text/css">
	.st0{fill:#174C74;}
</style>
<path class="st0" d="M238.5,89.7c6,0.9,12,1.5,17.9,2.6c28.8,5.5,53.4,18.8,74,39.7c18.7,19,31,41.5,36.3,67.6
	c6.7,32.8,2.1,64.1-14.4,93.4c-5.3,9.4-11.9,17.9-18,26.9c-0.6,0.2-1.1,0.4-1.7,0.6c1.1,0.6,2.4,0.9,3.2,1.7
	c27.3,26.8,54.5,53.5,81.6,80.4c1.9,1.9,3.3,4.5,4.9,6.7c0,1.5,0,3,0,4.5c-3.4,7.2-8.5,10.1-14.5,7.7c-1.9-0.8-3.7-2.2-5.2-3.7
	c-27.4-26.9-54.8-53.9-82.2-80.8c-0.8-0.8-1.7-1.6-2.6-2.4c-4.4,3-8.6,6.1-13,8.8c-24.5,15.4-51.4,22.7-80.2,21.6
	c-38-1.4-70.5-16-96.9-43.5c-19.9-20.6-32.2-45.2-36.3-73.5C86,211.1,94,177.3,116,147.3c21.2-28.9,49.6-47.1,84.7-54.6
	c5.5-1.2,11.1-1.6,16.7-2.4c0.9-0.1,1.9-0.4,2.8-0.6C226.3,89.7,232.4,89.7,238.5,89.7z M111.2,226.7c0.3,4.8,0.2,8.8,0.7,12.8
	c3,25.1,12.6,47.4,30,65.8c30.5,32.3,68.3,44.4,111.5,36c37.9-7.4,66.2-29.2,83-64.3c16.9-35.4,15.9-71.1-3-105.3
	c-19.4-35-50.1-55-89.8-59.9c-31.4-3.9-60.2,3.8-85.5,22.9C127.5,158,112.2,189.2,111.2,226.7z"/>
</svg>
