<svg width="57" height="60" viewBox="0 0 57 60" fill="none" xmlns="http://www.w3.org/2000/svg">
<path d="M56.0553 37.0651C56.0435 35.8078 55.4195 34.9025 54.2774 34.5882C53.9713 34.5002 53.9242 34.3619 53.9006 34.0979C53.8418 33.4944 53.8064 32.8909 53.6769 32.2999C52.4053 26.0259 48.9555 21.7511 43.3038 19.5005C42.9741 19.3622 42.8564 19.2113 42.8682 18.8467C42.8917 17.866 42.88 16.8853 42.88 15.892C42.8682 15.2005 42.6091 14.8736 41.9733 14.8485C41.6554 14.8359 41.5966 14.7227 41.573 14.421C41.5141 13.7546 41.4317 13.0882 41.2904 12.4344C39.7127 5.16718 34.014 0.326544 26.973 0.276252C22.8873 0.251106 18.8017 0.276252 14.7278 0.276252C13.727 0.276252 12.7262 0.364263 11.7489 0.578006C4.76679 2.13707 0.0335533 8.3356 0.0335533 15.9549C0.0217791 30.1625 0.0335533 44.3701 0.0335533 58.5777C0.0335533 59.5709 0.316135 60.0236 0.893072 59.9984C1.44646 59.9733 1.68194 59.5458 1.68194 58.5777C1.68194 44.4329 1.68194 30.2882 1.68194 16.1435C1.68194 15.0496 1.75259 13.9683 1.9763 12.8996C3.34211 6.42449 8.40503 2.08678 14.6807 2.03648C18.7781 2.01134 22.8873 2.02391 26.9848 2.03648C28.1504 2.03648 29.2925 2.18736 30.4228 2.50169C35.5799 3.97274 39.3477 8.63736 39.9128 14.3078C39.9482 14.6724 39.9364 14.8736 39.489 14.8485C38.5706 14.8107 37.6404 14.8233 36.722 14.8359C36.4512 14.8359 36.3217 14.7982 36.2746 14.4461C35.5682 9.37917 31.8357 5.92157 27.0318 5.89642C22.8873 5.87128 18.7428 5.89642 14.61 5.89642C13.9389 5.89642 13.2796 5.94672 12.6202 6.09759C8.24019 7.14116 5.3084 11.0262 5.29663 15.8417C5.28486 22.8701 5.29663 29.8985 5.29663 36.9268C5.29663 44.2066 5.29663 51.4865 5.29663 58.7663C5.29663 59.5458 5.57921 59.9733 6.09728 59.9859C6.63889 59.9984 6.94502 59.5584 6.94502 58.7411C6.94502 58.2005 6.96857 57.6473 6.93325 57.1066C6.9097 56.742 7.03922 56.654 7.36889 56.654C8.3697 56.6791 9.37051 56.6791 10.3713 56.654C10.7245 56.6414 10.807 56.7923 10.7952 57.1318C10.7716 57.7604 10.7716 58.3891 10.7952 59.0177C10.807 59.6087 11.1366 59.9733 11.5958 59.9859C12.055 59.9984 12.4318 59.6212 12.4318 59.0429C12.4436 55.6984 12.4436 52.354 12.4318 48.997C12.4318 48.406 12.0904 48.054 11.6076 48.0666C11.1249 48.0666 10.8187 48.406 10.7952 49.0096C10.7716 49.5753 10.7599 50.1411 10.7952 50.7069C10.8305 51.2098 10.7245 51.3984 10.2065 51.3733C9.31164 51.323 8.40503 51.323 7.49841 51.3733C7.02744 51.3984 6.92147 51.2476 6.93325 50.7572C6.9568 46.1303 6.94502 41.5034 6.94502 36.8891C6.94502 29.7979 6.92147 22.7066 6.9568 15.6154C6.96857 11.2526 10.2771 7.70695 14.351 7.66923C18.6251 7.63151 22.9109 7.65666 27.1849 7.65666C28.3035 7.65666 29.3631 7.90812 30.364 8.42361C32.6835 9.63063 34.0846 11.6172 34.5909 14.3078C34.6262 14.4838 34.8382 14.7856 34.379 14.8359C33.6725 14.9113 33.4723 15.1879 33.4606 15.9423C33.4488 16.8853 33.437 17.8283 33.4724 18.7713C33.4841 19.1862 33.3782 19.3748 32.9896 19.5131C30.9527 20.2675 29.1159 21.4116 27.5264 22.9833C24.5593 25.9379 22.852 29.5841 22.4752 33.9093C22.4399 34.2865 22.3693 34.5128 21.9572 34.6259C20.921 34.9151 20.3088 35.8078 20.297 37.0023C20.2734 38.2093 20.2852 39.4289 20.297 40.6484C20.3088 41.4154 20.5913 41.7172 21.2978 41.7172C32.5422 41.7172 43.7983 41.7172 55.0427 41.7172C55.7492 41.7172 56.0435 41.4028 56.0435 40.6484C56.0671 39.454 56.0671 38.2596 56.0553 37.0651ZM6.96857 53.2467C6.98034 53.0581 7.19228 53.1209 7.31002 53.1209C8.34616 53.1209 9.38229 53.121 10.4302 53.1084C10.7128 53.1084 10.7952 53.1964 10.807 53.4981C10.8776 54.9063 10.8894 54.9063 9.57067 54.9063C9.33519 54.9063 9.0997 54.9063 8.86422 54.9063C8.35793 54.9063 7.83986 54.9063 7.33357 54.9063C7.20405 54.9063 6.99212 54.9818 6.98034 54.8057C6.93325 54.2902 6.94502 53.7747 6.96857 53.2467ZM35.2149 16.7219C35.5446 16.3069 36.3806 16.6087 37.0046 16.5961C38.2527 16.571 39.5125 16.5961 40.7606 16.5835C41.0903 16.5835 41.2669 16.6087 41.2316 17.0362C41.1845 17.7026 41.4317 18.5701 41.1256 18.9724C40.8077 19.3873 39.9599 19.073 39.3359 19.0982C38.9474 19.1107 38.5588 19.0982 38.1585 19.0982C37.2754 19.0982 36.3924 19.0856 35.5211 19.1107C35.1796 19.1233 35.0854 18.9976 35.109 18.6581C35.1443 17.9917 34.9088 17.1242 35.2149 16.7219ZM24.1354 33.8841C24.5475 28.0125 28.951 22.3546 34.273 20.9213C34.4614 20.871 34.6615 20.8584 34.8499 20.8584C36.7574 20.8584 38.6648 20.9087 40.5604 20.8333C41.7379 20.7955 42.8093 21.0596 43.8454 21.5876C48.7553 24.0645 51.5458 28.1759 52.2169 33.9344C52.2758 34.4499 52.1109 34.5128 51.6988 34.5002C47.1893 34.4876 42.668 34.4876 38.1585 34.4876C33.6607 34.4876 29.163 34.4751 24.677 34.5002C24.1943 34.5254 24.1001 34.387 24.1354 33.8841ZM53.7593 39.9695C48.5551 39.9444 43.3627 39.9569 38.1585 39.9569C32.9543 39.9569 27.7618 39.9444 22.5576 39.9695C22.0278 39.9695 21.8865 39.8186 21.9218 39.278C21.9689 38.5865 21.9218 37.8949 21.9336 37.2034C21.9454 36.4868 22.1338 36.2604 22.8167 36.2604C25.4659 36.2604 28.1151 36.2604 30.7643 36.2604C38.2645 36.2604 45.7529 36.2604 53.253 36.2604C54.2892 36.2604 54.4069 36.3862 54.4069 37.48C54.4069 38.071 54.3716 38.6493 54.4187 39.2403C54.454 39.7935 54.3245 39.9695 53.7593 39.9695Z" fill="black"/>
<path d="M26.4904 44.3323C26.2078 44.3575 25.937 44.5586 25.8311 44.9233C25.6544 45.5142 25.4896 46.1177 25.3601 46.7212C25.2541 47.2367 25.4543 47.6265 25.9488 47.7774C26.4198 47.9157 26.773 47.6893 26.9143 47.2241C27.1144 46.6206 27.2675 45.992 27.397 45.3633C27.5148 44.8101 27.0909 44.3198 26.4904 44.3323Z" fill="#010101"/>
<path d="M25.089 50.1662C24.6651 50.2039 24.3943 50.4177 24.2883 50.82C24.1353 51.3733 23.9822 51.939 23.8409 52.5048C23.7232 53.0078 23.9704 53.473 24.3825 53.6113C24.8182 53.7496 25.2538 53.5233 25.4069 53.0329C25.5953 52.442 25.7483 51.8385 25.8779 51.2224C25.9956 50.6566 25.5835 50.1536 25.089 50.1662Z" fill="#010101"/>
<path d="M53.5829 56.6414C53.4652 56.2516 53.2061 56.0253 52.8882 56.0002C52.2877 55.9876 51.8639 56.4905 51.9816 57.0312C52.1111 57.6598 52.2642 58.2759 52.4761 58.8794C52.6292 59.3446 52.9824 59.5709 53.4534 59.4201C53.9479 59.2692 54.1481 58.8794 54.0421 58.3639C53.9244 57.7981 53.7595 57.2198 53.5829 56.6414Z" fill="#010101"/>
<path d="M51.0045 46.7589C50.8867 46.1303 50.7219 45.5016 50.5217 44.8855C50.3687 44.4078 49.9801 44.2066 49.5327 44.3575C49.0853 44.5083 48.8616 44.873 48.9793 45.3885C49.1088 45.992 49.2737 46.5955 49.4503 47.199C49.5563 47.5888 49.8388 47.7522 50.1803 47.8025C50.6866 47.8277 51.1105 47.3373 51.0045 46.7589Z" fill="#010101"/>
<path d="M23.8055 56.0505C23.4052 55.8744 22.9225 56.1259 22.7812 56.6162C22.5928 57.2198 22.4279 57.8484 22.2984 58.4771C22.1925 58.9926 22.6046 59.4829 23.1579 59.4955C23.4994 59.4578 23.7937 59.244 23.9115 58.8165C24.0646 58.2633 24.2176 57.6975 24.3471 57.1443C24.4649 56.6162 24.2647 56.239 23.8055 56.0505Z" fill="#010101"/>
<path d="M46.2709 57.2574C46.1885 56.6288 45.847 56.3144 45.3407 56.3647C44.8462 56.415 44.599 56.7922 44.6461 57.6095C44.6932 58.0118 44.752 58.5651 44.8344 59.1183C44.9286 59.6464 45.2583 59.9355 45.7528 59.8601C46.2474 59.7847 46.4828 59.4075 46.4357 58.8668C46.4004 58.3262 46.3415 57.7855 46.2709 57.2574Z" fill="#010101"/>
<path d="M32.4835 44.3449C31.989 44.2569 31.6358 44.5209 31.5534 45.0616C31.4592 45.6525 31.3885 46.256 31.3297 46.8595C31.2826 47.4001 31.5298 47.7396 32.0243 47.8402C32.4953 47.9282 32.8721 47.5887 32.9545 47.0229C33.0369 46.4697 33.084 45.9039 33.1547 45.225C33.19 44.8227 32.9898 44.4329 32.4835 44.3449Z" fill="#010101"/>
<path d="M38.9944 45.1622C38.9591 44.6593 38.6765 44.345 38.2055 44.3324C37.7228 44.3198 37.4166 44.6216 37.3696 45.1119C37.3225 45.7531 37.3225 46.4069 37.3696 47.0481C37.4049 47.5385 37.6992 47.8528 38.1937 47.8402C38.6765 47.8277 38.9473 47.5385 38.9944 47.0356C39.0179 46.7212 38.9944 46.4069 38.9944 46.0926C38.9944 45.7908 39.0179 45.4765 38.9944 45.1622Z" fill="#010101"/>
<path d="M44.3402 47.8402C44.8465 47.727 45.0467 47.3624 44.9996 46.6206C44.9525 46.2434 44.8936 45.665 44.7994 45.0867C44.717 44.5586 44.3991 44.2694 43.8928 44.3323C43.3865 44.3952 43.151 44.7724 43.1863 45.3004C43.2334 45.8788 43.2923 46.4697 43.3747 47.0481C43.4807 47.6139 43.881 47.9408 44.3402 47.8402Z" fill="#010101"/>
<path d="M38.9946 51.2224C38.9593 50.7069 38.6649 50.4051 38.194 50.3926C37.7466 50.38 37.4169 50.6566 37.3816 51.1218C37.3227 51.8008 37.3227 52.5049 37.3816 53.1838C37.4169 53.649 37.7348 53.9256 38.194 53.9131C38.6532 53.9005 38.9358 53.6364 38.9828 53.1587C39.0182 52.8569 38.9946 52.53 38.9946 52.2157C38.9946 51.8888 39.0182 51.5493 38.9946 51.2224Z" fill="#010101"/>
<path d="M38.9948 57.2701C38.9477 56.7546 38.6652 56.4654 38.1824 56.4654C37.6997 56.4654 37.3935 56.7671 37.37 57.2701C37.3347 57.8987 37.3347 58.5274 37.37 59.1435C37.3935 59.659 37.7821 60.0361 38.2177 59.9984C38.6769 59.9481 38.9713 59.6715 39.0066 59.156C39.0302 58.8417 39.0066 58.5274 39.0066 58.213C38.9948 57.8861 39.0184 57.5718 38.9948 57.2701Z" fill="#010101"/>
<path d="M52.5229 52.5551C52.3934 51.9516 52.2286 51.3481 52.052 50.7446C51.9342 50.38 51.6516 50.1914 51.2631 50.1663C50.7921 50.1663 50.38 50.644 50.4742 51.1595C50.6037 51.7882 50.7686 52.4168 50.957 53.0329C51.11 53.5233 51.5574 53.7622 51.9931 53.5987C52.4287 53.4227 52.6289 53.0455 52.5229 52.5551Z" fill="#010101"/>
<path d="M45.0343 53.8502C45.5053 53.7747 45.7525 53.4353 45.729 52.9198C45.6937 52.3791 45.6348 51.8385 45.5641 51.2978C45.4817 50.6189 45.1403 50.2794 44.634 50.3423C44.1277 50.3926 43.8804 50.7823 43.9511 51.7127C43.9982 52.0522 44.0453 52.6054 44.1512 53.1587C44.2336 53.6742 44.5751 53.9256 45.0343 53.8502Z" fill="#010101"/>
<path d="M31.0115 56.3648C30.5288 56.3145 30.1873 56.6037 30.0932 57.1946C30.0107 57.7227 29.9636 58.2759 29.9165 58.716C29.8812 59.4327 30.1638 59.8476 30.6583 59.8853C31.1057 59.923 31.4707 59.5835 31.5532 59.0052C31.6238 58.4645 31.6827 57.9239 31.7298 57.3958C31.7651 56.7923 31.4825 56.4151 31.0115 56.3648Z" fill="#010101"/>
<path d="M31.7413 50.3549C31.235 50.292 30.9171 50.5686 30.8347 51.0967C30.7523 51.6499 30.6934 52.2157 30.6345 52.6306C30.5992 53.4101 30.8583 53.7999 31.3528 53.8502C31.8355 53.9005 32.1887 53.5484 32.2712 52.9323C32.3418 52.3917 32.4124 51.8511 32.4478 51.3104C32.4831 50.7949 32.2594 50.4303 31.7413 50.3549Z" fill="#010101"/>
</svg>
