<?xml version="1.0" encoding="utf-8"?>
<!-- Generator: Adobe Illustrator 26.0.3, SVG Export Plug-In . SVG Version: 6.00 Build 0)  -->
<svg version="1.1" id="圖層_1" xmlns="http://www.w3.org/2000/svg" xmlns:xlink="http://www.w3.org/1999/xlink" x="0px" y="0px"
	 viewBox="0 0 512 512" style="enable-background:new 0 0 512 512;" xml:space="preserve">
<style type="text/css">
	.st0{fill:#174C74;}
	.st1{fill:#010101;}
</style>
<g>
	<path class="st0" d="M493.9,311.1c-0.1-10-5.4-17.2-15.1-19.7c-2.6-0.7-3-1.8-3.2-3.9c-0.5-4.8-0.8-9.6-1.9-14.3
		c-10.8-49.9-40.1-83.9-88.1-101.8c-2.8-1.1-3.8-2.3-3.7-5.2c0.2-7.8,0.1-15.6,0.1-23.5c-0.1-5.5-2.3-8.1-7.7-8.3
		c-2.7-0.1-3.2-1-3.4-3.4c-0.5-5.3-1.2-10.6-2.4-15.8c-13.4-57.8-61.8-96.3-121.6-96.7c-34.7-0.2-69.4,0-104,0
		c-8.5,0-17,0.7-25.3,2.4C58.3,33.3,18.1,82.6,18.1,143.2c-0.1,113,0,226,0,339c0,7.9,2.4,11.5,7.3,11.3c4.7-0.2,6.7-3.6,6.7-11.3
		c0-112.5,0-225,0-337.5c0-8.7,0.6-17.3,2.5-25.8c11.6-51.5,54.6-86,107.9-86.4c34.8-0.2,69.7-0.1,104.5,0c9.9,0,19.6,1.2,29.2,3.7
		C320,47.9,352,85,356.8,130.1c0.3,2.9,0.2,4.5-3.6,4.3c-7.8-0.3-15.7-0.2-23.5-0.1c-2.3,0-3.4-0.3-3.8-3.1
		c-6-40.3-37.7-67.8-78.5-68c-35.2-0.2-70.4,0-105.5,0c-5.7,0-11.3,0.4-16.9,1.6c-37.2,8.3-62.1,39.2-62.2,77.5
		c-0.1,55.9,0,111.8,0,167.7c0,57.9,0,115.8,0,173.7c0,6.2,2.4,9.6,6.8,9.7c4.6,0.1,7.2-3.4,7.2-9.9c0-4.3,0.2-8.7-0.1-13
		c-0.2-2.9,0.9-3.6,3.7-3.6c8.5,0.2,17,0.2,25.5,0c3-0.1,3.7,1.1,3.6,3.8c-0.2,5-0.2,10,0,15c0.1,4.7,2.9,7.6,6.8,7.7
		c3.9,0.1,7.1-2.9,7.1-7.5c0.1-26.6,0.1-53.2,0-79.9c0-4.7-2.9-7.5-7-7.4c-4.1,0-6.7,2.7-6.9,7.5c-0.2,4.5-0.3,9,0,13.5
		c0.3,4-0.6,5.5-5,5.3c-7.6-0.4-15.3-0.4-23,0c-4,0.2-4.9-1-4.8-4.9c0.2-36.8,0.1-73.6,0.1-110.3c0-56.4-0.2-112.8,0.1-169.2
		c0.1-34.7,28.2-62.9,62.8-63.2c36.3-0.3,72.7-0.1,109-0.1c9.5,0,18.5,2,27,6.1c19.7,9.6,31.6,25.4,35.9,46.8
		c0.3,1.4,2.1,3.8-1.8,4.2c-6,0.6-7.7,2.8-7.8,8.8c-0.1,7.5-0.2,15,0.1,22.5c0.1,3.3-0.8,4.8-4.1,5.9c-17.3,6-32.9,15.1-46.4,27.6
		c-25.2,23.5-39.7,52.5-42.9,86.9c-0.3,3-0.9,4.8-4.4,5.7c-8.8,2.3-14,9.4-14.1,18.9c-0.2,9.6-0.1,19.3,0,29
		c0.1,6.1,2.5,8.5,8.5,8.5c95.5,0,191.1,0,286.6,0c6,0,8.5-2.5,8.5-8.5C494,330.1,494,320.6,493.9,311.1z M77,439.8
		c0.1-1.5,1.9-1,2.9-1c8.8,0,17.6,0,26.5-0.1c2.4,0,3.1,0.7,3.2,3.1c0.6,11.2,0.7,11.2-10.5,11.2c-2,0-4,0-6,0c-4.3,0-8.7,0-13,0
		c-1.1,0-2.9,0.6-3-0.8C76.7,448.1,76.8,444,77,439.8z M316.9,149.3c2.8-3.3,9.9-0.9,15.2-1c10.6-0.2,21.3,0,31.9-0.1
		c2.8,0,4.3,0.2,4,3.6c-0.4,5.3,1.7,12.2-0.9,15.4c-2.7,3.3-9.9,0.8-15.2,1c-3.3,0.1-6.6,0-10,0c-7.5,0-15-0.1-22.4,0.1
		c-2.9,0.1-3.7-0.9-3.5-3.6C316.3,159.4,314.3,152.5,316.9,149.3z M222.8,285.8c3.5-46.7,40.9-91.7,86.1-103.1
		c1.6-0.4,3.3-0.5,4.9-0.5c16.2,0,32.4,0.4,48.5-0.2c10-0.3,19.1,1.8,27.9,6c41.7,19.7,65.4,52.4,71.1,98.2c0.5,4.1-0.9,4.6-4.4,4.5
		c-38.3-0.1-76.7-0.1-115-0.1c-38.2,0-76.4-0.1-114.5,0.1C223.3,290.9,222.5,289.8,222.8,285.8z M474.4,334.2
		c-44.2-0.2-88.3-0.1-132.5-0.1c-44.2,0-88.3-0.1-132.5,0.1c-4.5,0-5.7-1.2-5.4-5.5c0.4-5.5,0-11,0.1-16.5c0.1-5.7,1.7-7.5,7.5-7.5
		c22.5,0,45,0,67.5,0c63.7,0,127.3,0,191,0c8.8,0,9.8,1,9.8,9.7c0,4.7-0.3,9.3,0.1,14C480.3,332.8,479.2,334.2,474.4,334.2z"/>
	<path class="st0" d="M242.8,368.9c-2.4,0.2-4.7,1.8-5.6,4.7c-1.5,4.7-2.9,9.5-4,14.3c-0.9,4.1,0.8,7.2,5,8.4c4,1.1,7-0.7,8.2-4.4
		c1.7-4.8,3-9.8,4.1-14.8C251.5,372.7,247.9,368.8,242.8,368.9z"/>
	<path class="st0" d="M230.9,415.3c-3.6,0.3-5.9,2-6.8,5.2c-1.3,4.4-2.6,8.9-3.8,13.4c-1,4,1.1,7.7,4.6,8.8c3.7,1.1,7.4-0.7,8.7-4.6
		c1.6-4.7,2.9-9.5,4-14.4C238.6,419.2,235.1,415.2,230.9,415.3z"/>
	<path class="st0" d="M472.9,466.8c-1-3.1-3.2-4.9-5.9-5.1c-5.1-0.1-8.7,3.9-7.7,8.2c1.1,5,2.4,9.9,4.2,14.7
		c1.3,3.7,4.3,5.5,8.3,4.3c4.2-1.2,5.9-4.3,5-8.4C475.8,476,474.4,471.4,472.9,466.8z"/>
	<path class="st0" d="M451,388.2c-1-5-2.4-10-4.1-14.9c-1.3-3.8-4.6-5.4-8.4-4.2c-3.8,1.2-5.7,4.1-4.7,8.2c1.1,4.8,2.5,9.6,4,14.4
		c0.9,3.1,3.3,4.4,6.2,4.8C448.3,396.7,451.9,392.8,451,388.2z"/>
	<path class="st0" d="M220,462.1c-3.4-1.4-7.5,0.6-8.7,4.5c-1.6,4.8-3,9.8-4.1,14.8c-0.9,4.1,2.6,8,7.3,8.1c2.9-0.3,5.4-2,6.4-5.4
		c1.3-4.4,2.6-8.9,3.7-13.3C225.6,466.6,223.9,463.6,220,462.1z"/>
	<path class="st0" d="M410.8,471.7c-0.7-5-3.6-7.5-7.9-7.1c-4.2,0.4-6.3,3.4-5.9,9.9c0.4,3.2,0.9,7.6,1.6,12
		c0.8,4.2,3.6,6.5,7.8,5.9c4.2-0.6,6.2-3.6,5.8-7.9C411.9,480.2,411.4,475.9,410.8,471.7z"/>
	<path class="st0" d="M293.7,369c-4.2-0.7-7.2,1.4-7.9,5.7c-0.8,4.7-1.4,9.5-1.9,14.3c-0.4,4.3,1.7,7,5.9,7.8c4,0.7,7.2-2,7.9-6.5
		c0.7-4.4,1.1-8.9,1.7-14.3C299.7,372.8,298,369.7,293.7,369z"/>
	<path class="st0" d="M349,375.5c-0.3-4-2.7-6.5-6.7-6.6c-4.1-0.1-6.7,2.3-7.1,6.2c-0.4,5.1-0.4,10.3,0,15.4c0.3,3.9,2.8,6.4,7,6.3
		c4.1-0.1,6.4-2.4,6.8-6.4c0.2-2.5,0-5,0-7.5C349,380.5,349.2,378,349,375.5z"/>
	<path class="st0" d="M394.4,396.8c4.3-0.9,6-3.8,5.6-9.7c-0.4-3-0.9-7.6-1.7-12.2c-0.7-4.2-3.4-6.5-7.7-6c-4.3,0.5-6.3,3.5-6,7.7
		c0.4,4.6,0.9,9.3,1.6,13.9C387.1,395,390.5,397.6,394.4,396.8z"/>
	<path class="st0" d="M349,423.7c-0.3-4.1-2.8-6.5-6.8-6.6c-3.8-0.1-6.6,2.1-6.9,5.8c-0.5,5.4-0.5,11,0,16.4c0.3,3.7,3,5.9,6.9,5.8
		c3.9-0.1,6.3-2.2,6.7-6c0.3-2.4,0.1-5,0.1-7.5c0,0,0,0,0,0C349,429,349.2,426.3,349,423.7z"/>
	<path class="st0" d="M349,471.8c-0.4-4.1-2.8-6.4-6.9-6.4c-4.1,0-6.7,2.4-6.9,6.4c-0.3,5-0.3,10,0,14.9c0.2,4.1,3.5,7.1,7.2,6.8
		c3.9-0.4,6.4-2.6,6.7-6.7c0.2-2.5,0-5,0-7.5C349,476.7,349.2,474.2,349,471.8z"/>
	<path class="st0" d="M463.9,434.3c-1.1-4.8-2.5-9.6-4-14.4c-1-2.9-3.4-4.4-6.7-4.6c-4,0-7.5,3.8-6.7,7.9c1.1,5,2.5,10,4.1,14.9
		c1.3,3.9,5.1,5.8,8.8,4.5C463.1,441.2,464.8,438.2,463.9,434.3z"/>
	<path class="st0" d="M400.3,444.6c4-0.6,6.1-3.3,5.9-7.4c-0.3-4.3-0.8-8.6-1.4-12.9c-0.7-5.4-3.6-8.1-7.9-7.6
		c-4.3,0.4-6.4,3.5-5.8,10.9c0.4,2.7,0.8,7.1,1.7,11.5C393.5,443.2,396.4,445.2,400.3,444.6z"/>
	<path class="st0" d="M281.2,464.6c-4.1-0.4-7,1.9-7.8,6.6c-0.7,4.2-1.1,8.6-1.5,12.1c-0.3,5.7,2.1,9,6.3,9.3c3.8,0.3,6.9-2.4,7.6-7
		c0.6-4.3,1.1-8.6,1.5-12.8C287.6,468,285.2,465,281.2,464.6z"/>
	<path class="st0" d="M287.4,416.8c-4.3-0.5-7,1.7-7.7,5.9c-0.7,4.4-1.2,8.9-1.7,12.2c-0.3,6.2,1.9,9.3,6.1,9.7
		c4.1,0.4,7.1-2.4,7.8-7.3c0.6-4.3,1.2-8.6,1.5-12.9C293.7,420.3,291.8,417.4,287.4,416.8z"/>
</g>
</svg>
