<svg width="51" height="55" viewBox="0 0 51 55" fill="none" xmlns="http://www.w3.org/2000/svg">
<path d="M0.191406 54.712C0.191406 36.8064 0.191406 18.8754 0.191406 0.931885C16.9712 0.931885 33.751 0.931885 50.5544 0.931885C50.5544 18.8501 50.5544 36.7684 50.5544 54.712C33.7747 54.712 16.983 54.712 0.191406 54.712ZM18.2984 18.1162C28.4303 18.1162 38.5029 18.1162 48.5636 18.1162C48.5636 13.0672 48.5636 8.05616 48.5636 3.04513C33.0874 3.04513 17.6466 3.04513 2.19408 3.04513C2.19408 13.8264 2.19408 24.5951 2.19408 35.3511C6.92228 35.3511 11.6149 35.3511 16.3313 35.3511C16.3313 35.1234 16.3313 34.9335 16.3313 34.7437C16.3313 27.1259 16.3313 19.5082 16.3313 11.8904C16.3313 11.7006 16.3194 11.4981 16.3431 11.3083C16.4024 10.7768 16.829 10.3845 17.3148 10.3845C17.8007 10.3845 18.2273 10.7768 18.2865 11.3083C18.3102 11.4854 18.2984 11.6626 18.2984 11.8271C18.2984 13.915 18.2984 16.003 18.2984 18.1162ZM34.462 20.2801C34.462 31.074 34.462 41.8427 34.462 52.5861C39.1902 52.5861 43.8828 52.5861 48.5755 52.5861C48.5755 41.7921 48.5755 31.0487 48.5755 20.2801C43.871 20.2801 39.1902 20.2801 34.462 20.2801ZM2.18223 52.5987C12.2904 52.5987 22.363 52.5987 32.4237 52.5987C32.4237 47.5497 32.4237 42.5387 32.4237 37.5276C22.3274 37.5276 12.2667 37.5276 2.18223 37.5276C2.18223 42.5513 2.18223 47.5497 2.18223 52.5987ZM18.3221 35.3638C23.0503 35.3638 27.7429 35.3638 32.4356 35.3638C32.4356 30.3148 32.4356 25.3037 32.4356 20.2927C27.7192 20.2927 23.0266 20.2927 18.3221 20.2927C18.3221 25.3164 18.3221 30.3148 18.3221 35.3638Z" fill="black"/>
<path d="M17.303 7.75239C16.7579 7.73974 16.3194 7.24623 16.3313 6.66415C16.355 6.10737 16.7934 5.65182 17.3267 5.65182C17.8718 5.66448 18.3221 6.15799 18.2984 6.74007C18.2747 7.29685 17.8244 7.75239 17.303 7.75239Z" fill="black"/>
</svg>
