<svg width="58" height="61" viewBox="0 0 58 61" fill="none" xmlns="http://www.w3.org/2000/svg">
<path d="M35.329 25.3848C35.329 24.4485 35.329 23.5882 35.329 22.7279C35.329 21.0199 35.3172 19.2992 35.329 17.5912C35.3527 15.453 36.9759 13.7703 38.9664 13.783C40.9213 13.7956 42.5208 15.4657 42.5682 17.5785C42.58 18.2238 42.5682 18.8564 42.5682 19.5396C41.9639 19.5396 41.3952 19.5396 40.7554 19.5396C40.7554 18.9323 40.7673 18.3377 40.7554 17.743C40.7436 16.579 39.9616 15.7061 38.9308 15.7187C37.9237 15.7314 37.1418 16.579 37.1418 17.7177C37.1299 20.2481 37.1418 22.7785 37.1418 25.3468C37.746 25.3468 38.3029 25.3468 38.919 25.3468C38.919 24.7522 38.919 24.1449 38.919 23.487C39.5469 23.487 40.1275 23.487 40.7436 23.487C40.7436 24.0943 40.7436 24.6889 40.7436 25.3721C40.9805 25.3721 41.182 25.3721 41.3834 25.3721C45.3051 25.3721 49.2268 25.3721 53.1485 25.3721C54.5703 25.3721 55.2693 26.1059 55.2456 27.6368C55.2219 29.2563 55.3878 30.901 54.9494 32.4952C54.2148 35.1647 52.6509 37.0625 50.2694 38.1885C49.9969 38.315 49.8073 38.4163 49.8073 38.8211C49.8192 43.5909 49.8192 48.3607 49.8192 53.1304C49.8192 53.2316 49.831 53.3329 49.8429 53.4594C51.2054 53.7377 52.0466 54.6866 52.6627 55.9265C52.9945 56.5844 53.3499 57.217 53.7527 57.8369C53.8712 58.0267 54.1437 58.1912 54.357 58.2038C54.9375 58.2545 55.5181 58.2165 56.1224 58.2165C56.1224 58.8618 56.1224 59.4564 56.1224 60.1016C37.7579 60.1016 19.3934 60.1016 0.981506 60.1016C0.981506 59.507 0.981506 58.8997 0.981506 58.2418C2.10707 58.2418 3.23264 58.2418 4.45299 58.2418C4.45299 57.9888 4.45299 57.7737 4.45299 57.5713C4.45299 52.4725 4.51223 47.3865 4.41744 42.2877C4.39375 40.7189 3.97906 39.1501 3.70656 37.5939C2.80611 32.356 1.88196 27.1181 0.969658 21.8802C0.756393 20.6403 1.57391 19.5902 2.75871 19.5649C3.61177 19.5396 4.45299 19.5522 5.30605 19.5649C6.46716 19.5649 7.1425 20.1469 7.35576 21.3741C7.90077 24.4738 8.43393 27.5862 8.9671 30.6859C9.5358 33.9881 10.1164 37.2902 10.6851 40.5924C10.6969 40.6556 10.7206 40.7062 10.7798 40.8328C10.9694 40.8328 11.1945 40.8328 11.4078 40.8328C15.9456 40.8328 20.4953 40.8328 25.0331 40.8328C27.0591 40.8328 28.1846 42.1106 28.0662 44.2614C27.8529 48.1835 24.879 51.473 21.1943 51.8399C20.0095 51.9538 18.8365 52.0297 17.5806 52.1183C17.9953 54.1552 18.41 56.1416 18.8484 58.2292C19.0261 58.2292 19.2038 58.2292 19.3815 58.2292C23.1492 58.2292 26.9169 58.2292 30.6964 58.2418C31.0637 58.2418 31.277 58.1279 31.4547 57.7863C31.8338 57.0525 32.2722 56.344 32.6632 55.6102C33.2438 54.4968 34.085 53.763 35.329 53.4594C35.329 53.2696 35.329 53.0672 35.329 52.8774C35.329 48.2468 35.329 43.6162 35.3409 38.9856C35.3409 38.5807 35.2461 38.3656 34.8669 38.1759C31.7154 36.6197 30.0566 33.9881 29.9026 30.2811C29.8671 29.3195 29.8908 28.3453 29.9026 27.3838C29.9145 26.1945 30.6727 25.3848 31.7983 25.3848C32.9476 25.3848 34.0968 25.3848 35.329 25.3848ZM31.7154 27.3458C31.7154 28.3959 31.7035 29.3828 31.7154 30.357C31.7864 33.9628 34.5115 36.9233 37.8882 36.9739C41.0161 37.0245 44.144 36.9992 47.2719 36.9739C48.7766 36.9613 50.0917 36.3793 51.241 35.3292C53.6106 33.1784 53.5632 30.2937 53.3855 27.3458C46.17 27.3458 38.9782 27.3458 31.7154 27.3458ZM37.1655 53.3708C40.8028 53.3708 44.3928 53.3708 47.9709 53.3708C47.9709 48.5251 47.9709 43.7301 47.9709 38.935C44.3454 38.935 40.7673 38.935 37.1655 38.935C37.1655 43.768 37.1655 48.5504 37.1655 53.3708ZM6.27759 58.2165C9.86755 58.2165 13.422 58.2165 17.0001 58.2165C16.5735 56.2048 16.1707 54.2311 15.756 52.2575C14.7253 52.3207 13.7656 52.384 12.7585 52.4472C12.7229 51.7893 12.6992 51.1694 12.6755 50.5621C12.8177 50.5368 12.9006 50.5241 12.9717 50.5241C15.4006 50.3597 17.8176 50.1699 20.2464 50.0434C22.308 49.9421 24.0141 49.1451 25.2345 47.3232C25.353 47.1334 25.4596 46.931 25.5781 46.7159C19.0972 46.7159 12.6992 46.7159 6.28943 46.7159C6.27759 50.5494 6.27759 54.345 6.27759 58.2165ZM8.89601 40.8328C7.77044 34.3676 6.65672 27.9784 5.54301 21.5512C4.60701 21.5512 3.71841 21.5512 2.78241 21.5512C3.88428 28.0037 4.998 34.4182 6.09987 40.8328C7.04771 40.8328 7.92447 40.8328 8.89601 40.8328ZM51.8334 58.2418C51.3713 57.4574 51.004 56.7362 50.5656 56.0657C50.2339 55.5596 49.7126 55.3572 49.132 55.3572C44.7601 55.3572 40.3881 55.3445 36.0162 55.3698C35.6252 55.3698 35.1158 55.509 34.8906 55.7873C34.2982 56.5085 33.8362 57.3435 33.2675 58.2418C39.5351 58.2418 45.6131 58.2418 51.8334 58.2418ZM6.27759 44.6916C12.9362 44.6916 19.5474 44.6916 26.1468 44.6916C26.5615 43.3505 26.0283 42.7559 24.9146 42.7685C18.9195 42.8065 12.9362 42.7938 6.94108 42.7938C6.72781 42.7938 6.5027 42.7938 6.27759 42.7938C6.27759 43.4644 6.27759 44.0464 6.27759 44.6916Z" fill="black"/>
<path d="M44.381 19.5902C44.381 18.9829 44.381 18.4642 44.381 17.9328C44.381 17.8569 44.4047 17.781 44.4166 17.6671C48.0184 17.6671 51.5846 17.6671 55.1983 17.6671C55.1983 12.5051 55.1983 7.38108 55.1983 2.23175C46.7862 2.23175 38.3859 2.23175 29.9382 2.23175C29.9382 7.34312 29.9382 12.4545 29.9382 17.6418C31.0993 17.6418 32.2723 17.6418 33.4808 17.6418C33.4808 18.2997 33.4808 18.8943 33.4808 19.5396C33.3742 19.5522 33.2438 19.5902 33.1254 19.5902C32.0472 19.5902 30.9809 19.6028 29.9027 19.5902C28.8719 19.5775 28.0899 18.7678 28.0899 17.6797C28.0781 12.5051 28.0781 7.33047 28.0899 2.15583C28.0899 1.06777 28.8838 0.283351 29.9145 0.270699C31.3837 0.258047 32.8529 0.270699 34.322 0.270699C41.182 0.270699 48.0539 0.270699 54.914 0.270699C56.3476 0.270699 57.0348 1.00451 57.0348 2.52274C57.0348 7.46964 57.0348 12.4292 57.0348 17.3761C57.0348 18.8564 56.3357 19.6028 54.9376 19.6028C51.6202 19.6028 48.3027 19.6028 44.9853 19.6028C44.8194 19.5902 44.6417 19.5902 44.381 19.5902Z" fill="black"/>
<path d="M24.4765 27.3331C25.1163 27.3331 25.6731 27.3331 26.2537 27.3331C26.2537 27.9784 26.2537 28.573 26.2537 29.2309C25.685 29.2309 25.1163 29.2309 24.4765 29.2309C24.4765 29.8129 24.4765 30.319 24.4765 30.8377C24.4765 32.2168 23.9907 32.862 22.6637 33.153C22.6637 33.735 22.6637 34.3296 22.6637 34.9243C22.6519 36.1641 21.9054 36.9612 20.7562 36.9739C19.6069 36.9865 18.4576 36.9865 17.3084 36.9739C16.1828 36.9612 15.4482 36.1515 15.4245 34.9496C15.4127 34.3676 15.4245 33.7856 15.4245 33.191C15.1165 33.0771 14.7966 33.0012 14.5359 32.8367C13.9435 32.4698 13.6236 31.9005 13.6118 31.154C13.6118 30.5341 13.6118 29.9141 13.6118 29.2562C12.9957 29.2562 12.4388 29.2562 11.8464 29.2562C11.8464 28.5983 11.8464 27.991 11.8464 27.3205C12.4151 27.3205 12.9838 27.3205 13.6118 27.3205C13.6118 26.6626 13.5999 26.0553 13.6118 25.4607C13.6236 24.2587 14.3819 23.449 15.4956 23.449C17.8652 23.4364 20.2467 23.4364 22.6163 23.449C23.7063 23.449 24.4528 24.2714 24.4646 25.4353C24.4765 26.0426 24.4765 26.6499 24.4765 27.3331ZM15.4482 31.1414C17.8771 31.1414 20.2586 31.1414 22.6163 31.1414C22.6163 29.2056 22.6163 27.3078 22.6163 25.4227C20.1993 25.4227 17.8416 25.4227 15.4482 25.4227C15.4482 27.3331 15.4482 29.2183 15.4482 31.1414ZM20.8154 35.0255C20.8154 34.3802 20.8154 33.7729 20.8154 33.1657C19.6069 33.1657 18.434 33.1657 17.2728 33.1657C17.2728 33.8109 17.2728 34.4308 17.2728 35.0255C18.4813 35.0255 19.6425 35.0255 20.8154 35.0255Z" fill="black"/>
<path d="M38.4453 5.69835C38.7889 5.33144 39.1917 4.91392 39.5472 4.53436C41.9286 7.07742 44.3219 9.63313 46.7389 12.2141C46.3717 12.5811 45.9688 12.9986 45.6134 13.3528C43.2556 10.8224 40.8623 8.26671 38.4453 5.69835Z" fill="black"/>
<path d="M45.9211 4.50909C47.4021 6.09059 48.8713 7.67208 50.376 9.27888C49.985 9.67109 49.5585 10.0886 49.1794 10.4682C47.7339 8.92462 46.241 7.33048 44.7363 5.72368C45.1036 5.34412 45.5065 4.92661 45.9211 4.50909Z" fill="black"/>
<path d="M38.5278 11.2526C38.1961 11.6196 37.7932 12.0371 37.4378 12.4293C36.561 11.493 35.6724 10.5441 34.772 9.58258C35.1393 9.21568 35.5421 8.79816 35.8857 8.44391C36.7624 9.35485 37.6392 10.3037 38.5278 11.2526Z" fill="black"/>
</svg>
