<?xml version="1.0" encoding="utf-8"?>
<!-- Generator: Adobe Illustrator 26.0.3, SVG Export Plug-In . SVG Version: 6.00 Build 0)  -->
<svg version="1.1" id="圖層_1" xmlns="http://www.w3.org/2000/svg" xmlns:xlink="http://www.w3.org/1999/xlink" x="0px" y="0px"
	 viewBox="0 0 512 512" style="enable-background:new 0 0 512 512;" xml:space="preserve">
<style type="text/css">
	.st0{fill:#174C74;}
</style>
<g>
	<path d="M308.4,216.6c0-7.4,0-14.2,0-21c0-13.5-0.1-27.1,0-40.6c0.2-16.9,13.9-30.2,30.7-30.1c16.5,0.1,30,13.3,30.4,30
		c0.1,5.1,0,10.1,0,15.5c-5.1,0-9.9,0-15.3,0c0-4.8,0.1-9.5,0-14.2c-0.1-9.2-6.7-16.1-15.4-16c-8.5,0.1-15.1,6.8-15.1,15.8
		c-0.1,20,0,40,0,60.3c5.1,0,9.8,0,15,0c0-4.7,0-9.5,0-14.7c5.3,0,10.2,0,15.4,0c0,4.8,0,9.5,0,14.9c2,0,3.7,0,5.4,0
		c33.1,0,66.2,0,99.3,0c12,0,17.9,5.8,17.7,17.9c-0.2,12.8,1.2,25.8-2.5,38.4c-6.2,21.1-19.4,36.1-39.5,45c-2.3,1-3.9,1.8-3.9,5
		c0.1,37.7,0.1,75.4,0.1,113.1c0,0.8,0.1,1.6,0.2,2.6c11.5,2.2,18.6,9.7,23.8,19.5c2.8,5.2,5.8,10.2,9.2,15.1c1,1.5,3.3,2.8,5.1,2.9
		c4.9,0.4,9.8,0.1,14.9,0.1c0,5.1,0,9.8,0,14.9c-155,0-310,0-465.4,0c0-4.7,0-9.5,0-14.7c9.5,0,19,0,29.3,0c0-2,0-3.7,0-5.3
		c0-40.3,0.5-80.5-0.3-120.8c-0.2-12.4-3.7-24.8-6-37.1c-7.6-41.4-15.4-82.8-23.1-124.2c-1.8-9.8,5.1-18.1,15.1-18.3
		c7.2-0.2,14.3-0.1,21.5,0c9.8,0,15.5,4.6,17.3,14.3c4.6,24.5,9.1,49.1,13.6,73.6c4.8,26.1,9.7,52.2,14.5,78.3
		c0.1,0.5,0.3,0.9,0.8,1.9c1.6,0,3.5,0,5.3,0c38.3,0,76.7,0,115,0c17.1,0,26.6,10.1,25.6,27.1c-1.8,31-26.9,57-58,59.9
		c-10,0.9-19.9,1.5-30.5,2.2c3.5,16.1,7,31.8,10.7,48.3c1.5,0,3,0,4.5,0c31.8,0,63.6,0,95.5,0.1c3.1,0,4.9-0.9,6.4-3.6
		c3.2-5.8,6.9-11.4,10.2-17.2c4.9-8.8,12-14.6,22.5-17c0-1.5,0-3.1,0-4.6c0-36.6,0-73.2,0.1-109.8c0-3.2-0.8-4.9-4-6.4
		c-26.6-12.3-40.6-33.1-41.9-62.4c-0.3-7.6-0.1-15.3,0-22.9c0.1-9.4,6.5-15.8,16-15.8C288.3,216.6,298,216.6,308.4,216.6z
		 M277.9,232.1c0,8.3-0.1,16.1,0,23.8c0.6,28.5,23.6,51.9,52.1,52.3c26.4,0.4,52.8,0.2,79.2,0c12.7-0.1,23.8-4.7,33.5-13
		c20-17,19.6-39.8,18.1-63.1C399.9,232.1,339.2,232.1,277.9,232.1z M323.9,437.8c30.7,0,61,0,91.2,0c0-38.3,0-76.2,0-114.1
		c-30.6,0-60.8,0-91.2,0C323.9,361.9,323.9,399.7,323.9,437.8z M63.2,476.1c30.3,0,60.3,0,90.5,0c-3.6-15.9-7-31.5-10.5-47.1
		c-8.7,0.5-16.8,1-25.3,1.5c-0.3-5.2-0.5-10.1-0.7-14.9c1.2-0.2,1.9-0.3,2.5-0.3c20.5-1.3,40.9-2.8,61.4-3.8
		c17.4-0.8,31.8-7.1,42.1-21.5c1-1.5,1.9-3.1,2.9-4.8c-54.7,0-108.7,0-162.8,0C63.2,415.5,63.2,445.5,63.2,476.1z M85.3,338.7
		C75.8,287.6,66.4,237.1,57,186.3c-7.9,0-15.4,0-23.3,0C43,237.3,52.4,288,61.7,338.7C69.7,338.7,77.1,338.7,85.3,338.7z
		 M447.7,476.3c-3.9-6.2-7-11.9-10.7-17.2c-2.8-4-7.2-5.6-12.1-5.6c-36.9,0-73.8-0.1-110.7,0.1c-3.3,0-7.6,1.1-9.5,3.3
		c-5,5.7-8.9,12.3-13.7,19.4C343.9,476.3,395.2,476.3,447.7,476.3z M63.2,369.2c56.2,0,112,0,167.7,0c3.5-10.6-1-15.3-10.4-15.2
		c-50.6,0.3-101.1,0.2-151.7,0.2c-1.8,0-3.7,0-5.6,0C63.2,359.5,63.2,364.1,63.2,369.2z"/>
	<path d="M384.8,170.8c0-4.8,0-8.9,0-13.1c0-0.6,0.2-1.2,0.3-2.1c30.4,0,60.5,0,91,0c0-40.8,0-81.3,0-122c-71,0-141.9,0-213.2,0
		c0,40.4,0,80.8,0,121.8c9.8,0,19.7,0,29.9,0c0,5.2,0,9.9,0,15c-0.9,0.1-2,0.4-3,0.4c-9.1,0-18.1,0.1-27.2,0
		c-8.7-0.1-15.3-6.5-15.3-15.1c-0.1-40.9-0.1-81.8,0-122.7c0-8.6,6.7-14.8,15.4-14.9c12.4-0.1,24.8,0,37.2,0c57.9,0,115.9,0,173.8,0
		c12.1,0,17.9,5.8,17.9,17.8c0,39.1,0,78.3,0,117.4c0,11.7-5.9,17.6-17.7,17.6c-28,0-56,0-84,0C388.5,170.8,387,170.8,384.8,170.8z"
		/>
	<path d="M216.8,232c5.4,0,10.1,0,15,0c0,5.1,0,9.8,0,15c-4.8,0-9.6,0-15,0c0,4.6,0,8.6,0,12.7c0,10.9-4.1,16-15.3,18.3
		c0,4.6,0,9.3,0,14c-0.1,9.8-6.4,16.1-16.1,16.2c-9.7,0.1-19.4,0.1-29.1,0c-9.5-0.1-15.7-6.5-15.9-16c-0.1-4.6,0-9.2,0-13.9
		c-2.6-0.9-5.3-1.5-7.5-2.8c-5-2.9-7.7-7.4-7.8-13.3c0-4.9,0-9.8,0-15c-5.2,0-9.9,0-14.9,0c0-5.2,0-10,0-15.3c4.8,0,9.6,0,14.9,0
		c0-5.2-0.1-10,0-14.7c0.1-9.5,6.5-15.9,15.9-15.9c20-0.1,40.1-0.1,60.1,0c9.2,0,15.5,6.5,15.6,15.7
		C216.8,221.8,216.8,226.6,216.8,232z M140.6,262.1c20.5,0,40.6,0,60.5,0c0-15.3,0-30.3,0-45.2c-20.4,0-40.3,0-60.5,0
		C140.6,232,140.6,246.9,140.6,262.1z M185.9,292.8c0-5.1,0-9.9,0-14.7c-10.2,0-20.1,0-29.9,0c0,5.1,0,10,0,14.7
		C166.2,292.8,176,292.8,185.9,292.8z"/>
	<path d="M334.7,61c2.9-2.9,6.3-6.2,9.3-9.2c20.1,20.1,40.3,40.3,60.7,60.7c-3.1,2.9-6.5,6.2-9.5,9C375.3,101.5,355.1,81.3,334.7,61
		z"/>
	<path d="M397.8,51.6c12.5,12.5,24.9,25,37.6,37.7c-3.3,3.1-6.9,6.4-10.1,9.4c-12.2-12.2-24.8-24.8-37.5-37.5
		C390.9,58.2,394.3,54.9,397.8,51.6z"/>
	<path d="M335.4,104.9c-2.8,2.9-6.2,6.2-9.2,9.3c-7.4-7.4-14.9-14.9-22.5-22.5c3.1-2.9,6.5-6.2,9.4-9
		C320.5,89.9,327.9,97.4,335.4,104.9z"/>
</g>
</svg>
