<svg width="43" height="42" viewBox="0 0 43 42" fill="none" xmlns="http://www.w3.org/2000/svg">
<path d="M0 2.28596C0.207813 1.70628 0.448437 1.1594 0.951562 0.743776C1.77187 0.0765885 2.69063 0.0984634 3.675 0.251588C8.29063 0.962526 12.9062 1.66253 17.5219 2.36253C19.075 2.60315 20.6281 2.8219 22.1812 3.0844C23.6797 3.32503 24.5219 4.33128 24.5219 5.87346C24.5219 8.97971 24.5219 12.075 24.5219 15.1813C24.5219 15.3453 24.5219 15.5094 24.5219 15.7282C25.2 15.8703 25.8781 16.0125 26.5453 16.1438C30.9203 17.0188 35.2953 17.8938 39.6703 18.7469C40.9281 18.9875 41.6719 19.7094 42.0109 20.9125C42.0109 27.1469 42.0109 33.3813 42.0109 39.6157C41.9234 39.8672 41.8469 40.1297 41.7375 40.3703C41.3438 41.1907 40.6438 41.6063 39.8016 41.836C27.2781 41.836 14.7547 41.836 2.23125 41.836C1.55313 41.65 0.91875 41.3657 0.525 40.7422C0.317188 40.4141 0.185937 40.0422 0.0109373 39.7032C-1.66707e-07 27.2235 0 14.7547 0 2.28596ZM22.7391 40.0641C22.7391 39.8563 22.7391 39.6922 22.7391 39.5391C22.7391 28.3828 22.7391 17.2375 22.7391 6.08128C22.7391 5.96096 22.7391 5.82971 22.7391 5.7094C22.7172 5.21721 22.4766 4.9219 21.9844 4.82346C21.5469 4.73596 21.0984 4.67034 20.65 4.60471C14.7547 3.71878 8.85938 2.83284 2.95313 1.9469C2.14375 1.82659 1.73906 2.16565 1.73906 2.9969C1.73906 14.9953 1.73906 26.9938 1.73906 39.0032C1.73906 39.7688 2.06719 40.086 2.84375 40.0969C4.09063 40.0969 5.32656 40.0969 6.57344 40.0969C6.69375 40.0969 6.81406 40.086 6.97813 40.075C6.97813 39.9 6.97813 39.736 6.97813 39.5719C6.97813 37.1766 6.97813 34.7922 6.97813 32.3969C6.97813 30.6907 8.07188 29.6078 9.76719 29.5969C11.3969 29.586 13.0156 29.5969 14.6453 29.5969C16.4172 29.5969 17.4672 30.6578 17.4672 32.4297C17.4672 34.8032 17.4672 37.1875 17.4672 39.561C17.4672 39.725 17.4672 39.8781 17.4672 40.0641C19.25 40.0641 20.9672 40.0641 22.7391 40.0641ZM24.5328 40.086C24.7297 40.086 24.8719 40.086 25.025 40.086C29.6844 40.086 34.3438 40.086 39.0141 40.086C39.9875 40.086 40.2609 39.8125 40.2609 38.85C40.2609 33.1407 40.2609 27.4203 40.2609 21.711C40.2609 20.836 40.0641 20.5953 39.2219 20.4313C35.2406 19.6438 31.2703 18.8563 27.2891 18.0688C26.3813 17.8938 25.4734 17.7188 24.5328 17.5328C24.5328 25.0578 24.5328 32.5391 24.5328 40.086ZM15.75 40.075C15.75 39.9219 15.75 39.8235 15.75 39.7141C15.75 37.286 15.75 34.8469 15.75 32.4188C15.75 31.6422 15.4328 31.336 14.6453 31.336C13.0594 31.336 11.4734 31.336 9.8875 31.336C9.03437 31.336 8.75 31.6094 8.75 32.4625C8.75 34.8688 8.75 37.275 8.75 39.6703C8.75 39.8016 8.77188 39.9328 8.77188 40.075C11.1125 40.075 13.3984 40.075 15.75 40.075Z" fill="black"/>
<path d="M39.7906 41.825C40.6328 41.6063 41.3328 41.1797 41.7266 40.3594C41.8469 40.1188 41.9125 39.8563 42 39.6047C42 40.3485 42 41.0813 42 41.825C41.2563 41.825 40.5235 41.825 39.7906 41.825Z" fill="white"/>
<path d="M0 39.6921C0.164063 40.0421 0.30625 40.414 0.514062 40.7312C0.907812 41.3437 1.54219 41.6281 2.22031 41.8249C1.47656 41.8249 0.74375 41.8249 0.0109373 41.8249C-1.67056e-07 41.114 0 40.4031 0 39.6921Z" fill="white"/>
<path d="M7.87494 10.3249C7.32807 10.3249 6.78119 10.3249 6.23432 10.3249C5.64369 10.3249 5.24994 9.98584 5.239 9.47178C5.22807 8.94678 5.59994 8.59678 6.2015 8.58584C7.30619 8.5749 8.41088 8.5749 9.51557 8.58584C10.1062 8.58584 10.489 8.93584 10.489 9.46084C10.489 9.9749 10.0953 10.3249 9.50463 10.3249C8.96869 10.3358 8.42182 10.3249 7.87494 10.3249Z" fill="black"/>
<path d="M7.89686 13.8359C8.45467 13.8359 9.01248 13.825 9.57029 13.8359C10.1281 13.8469 10.5 14.2078 10.5 14.7109C10.5 15.214 10.1172 15.575 9.55936 15.575C8.44373 15.5859 7.31717 15.5859 6.20155 15.575C5.64373 15.575 5.26092 15.214 5.24998 14.7109C5.23905 14.1859 5.62186 13.8359 6.21248 13.8359C6.7703 13.825 7.32811 13.8359 7.89686 13.8359Z" fill="black"/>
<path d="M7.875 19.0859C8.44375 19.0859 9.02344 19.075 9.59219 19.0859C10.1281 19.0969 10.4891 19.4469 10.5 19.939C10.5109 20.4422 10.1281 20.8141 9.58125 20.825C8.44375 20.8359 7.31719 20.8359 6.17969 20.825C5.63281 20.825 5.25 20.4531 5.25 19.95C5.25 19.4469 5.62187 19.0969 6.19062 19.0969C6.74844 19.075 7.31719 19.0859 7.875 19.0859Z" fill="black"/>
<path d="M7.87504 26.0749C7.31723 26.0749 6.75941 26.0858 6.2016 26.0749C5.64379 26.064 5.26098 25.714 5.26098 25.2108C5.25004 24.7077 5.62191 24.3358 6.17973 24.3358C7.31723 24.3249 8.44379 24.3249 9.58129 24.3358C10.1391 24.3358 10.511 24.7077 10.511 25.2108C10.5 25.714 10.1282 26.064 9.57035 26.0749C9.55941 26.0749 9.54848 26.0749 9.5266 26.0749C8.96879 26.0749 8.42191 26.0749 7.87504 26.0749Z" fill="black"/>
<path d="M16.6032 10.3249C16.0563 10.3249 15.5094 10.3358 14.9625 10.3249C14.3719 10.314 14 9.96396 14.011 9.43896C14.0219 8.9249 14.3719 8.59678 14.9516 8.58584C16.0563 8.5749 17.161 8.5749 18.2657 8.58584C18.8563 8.58584 19.25 8.93584 19.25 9.4499C19.25 9.96396 18.8672 10.3249 18.2766 10.3249C17.7188 10.3358 17.161 10.3249 16.6032 10.3249Z" fill="black"/>
<path d="M16.6359 13.8359C17.1937 13.8359 17.7516 13.825 18.3094 13.8359C18.8672 13.8469 19.25 14.2078 19.2391 14.7109C19.2391 15.214 18.8562 15.575 18.2984 15.575C17.1828 15.5859 16.0672 15.5859 14.9406 15.575C14.3719 15.575 14.0109 15.225 14 14.7219C13.9891 14.1859 14.35 13.8469 14.9516 13.8359C15.5203 13.825 16.0781 13.8359 16.6359 13.8359Z" fill="black"/>
<path d="M16.625 20.8249C16.0672 20.8249 15.5094 20.8358 14.9515 20.8249C14.3828 20.814 14.0219 20.464 14.0219 19.9608C14.0219 19.4358 14.3719 19.0968 14.9406 19.0858C16.0672 19.0749 17.2047 19.0749 18.3312 19.0858C18.889 19.0858 19.2609 19.4687 19.25 19.9608C19.239 20.464 18.8562 20.814 18.2984 20.814C17.7406 20.8358 17.1828 20.8249 16.625 20.8249Z" fill="black"/>
<path d="M16.625 26.0749C16.0672 26.0749 15.5094 26.0858 14.9515 26.0749C14.3828 26.064 14.0219 25.714 14.0219 25.2108C14.0219 24.6858 14.3719 24.3468 14.9406 24.3358C16.0672 24.3249 17.2047 24.3249 18.3312 24.3358C18.889 24.3358 19.2609 24.7187 19.25 25.2108C19.239 25.714 18.8562 26.053 18.2984 26.0749C18.2875 26.0749 18.2765 26.0749 18.2547 26.0749C17.7078 26.0749 17.1609 26.0749 16.625 26.0749Z" fill="black"/>
<path d="M32.375 26.0749C31.8172 26.0749 31.2594 26.0858 30.7015 26.0749C30.1328 26.064 29.7719 25.714 29.7719 25.2108C29.7719 24.6858 30.1219 24.3468 30.6906 24.3358C31.8172 24.3249 32.9547 24.3249 34.0812 24.3358C34.639 24.3358 35.0109 24.7187 35 25.2108C34.989 25.714 34.6062 26.053 34.0484 26.0749C34.0375 26.0749 34.0265 26.0749 34.0047 26.0749C33.4578 26.0749 32.9109 26.0749 32.375 26.0749Z" fill="black"/>
<path d="M32.3532 31.3249C31.8063 31.3249 31.2594 31.3358 30.7125 31.3249C30.1219 31.314 29.75 30.964 29.761 30.439C29.7719 29.9249 30.1219 29.5968 30.7016 29.5858C31.8063 29.5749 32.911 29.5749 34.0157 29.5858C34.6063 29.5858 35 29.9358 35 30.4499C35 30.964 34.6172 31.3249 34.0266 31.3249C33.4688 31.3358 32.911 31.3249 32.3532 31.3249Z" fill="black"/>
<path d="M32.4079 34.8359C32.9657 34.8359 33.5235 34.825 34.0813 34.8359C34.6172 34.8468 34.9891 35.1968 35.0001 35.6781C35.011 36.1812 34.6391 36.564 34.0813 36.564C32.9329 36.575 31.7954 36.575 30.6469 36.564C30.111 36.5531 29.761 36.1921 29.761 35.689C29.761 35.1859 30.1 34.8359 30.6469 34.825C31.2376 34.825 31.8172 34.8359 32.4079 34.8359Z" fill="black"/>
</svg>
