<?xml version="1.0" encoding="utf-8"?>
<!-- Generator: Adobe Illustrator 26.0.3, SVG Export Plug-In . SVG Version: 6.00 Build 0)  -->
<svg version="1.1" id="圖層_1" xmlns="http://www.w3.org/2000/svg" xmlns:xlink="http://www.w3.org/1999/xlink" x="0px" y="0px"
	 viewBox="0 0 512 512" style="enable-background:new 0 0 512 512;" xml:space="preserve">
<style type="text/css">
	.st0{fill:#174C74;}
</style>
<g>
	<path class="st0" d="M463.6,203.4c-1.9,6.6-3,13.5-5.8,19.6c-12.6,26.9-34.3,40.5-63.7,40.6c-111.5,0.2-223.1,0.1-334.6,0.1
		c-1.5,0-3-0.1-4.4-0.3c-3.8-0.7-6.6-4.2-6.7-8.1c0-3.7,2.6-7.3,6.2-8c2.2-0.5,4.6-0.6,6.8-0.6c109.9,0,219.8,0,329.7,0
		c11.1,0,21.7-1.7,31.4-7.6c19.6-12,28.6-36.1,21.7-58.2c-7.1-22.4-28.3-36.7-52.4-35.1c-22,1.5-41.2,18.9-45.1,41.1
		c-0.6,3.2-0.6,6.5-1.1,9.6c-0.9,5.4-4.2,8.1-9.1,7.8c-4.7-0.4-7.8-3.8-7.6-9.2c0.9-26.8,13.1-47,36.9-59
		c41.8-21.2,89.9,4.3,97.2,50.8c0.1,0.6,0.5,1.2,0.7,1.8C463.6,193.7,463.6,198.5,463.6,203.4z"/>
	<path class="st0" d="M195,307.8c42.8,0,85.7,0,128.5,0c26.8,0,47.5,11.3,61.1,34.4c23.8,40.5-2.9,93.9-49.6,99.7
		c-40.3,5.1-76.2-25.4-76.6-65.1c-0.1-7.3,5.2-11.8,11.3-9.6c4.5,1.6,5.5,5.4,5.8,9.7c0.8,16.2,7.8,29.3,20.9,38.9
		c17.1,12.6,40.7,12.8,58.1,0.7c18-12.6,25.9-34.8,19.8-55.8c-5.9-20.2-24.5-34.9-45.7-35.9c-2.4-0.1-4.9-0.2-7.3-0.2
		c-86.6,0-173.3,0-259.9,0c-2.1,0-4.3-0.1-6.4-0.5c-3.9-0.8-6.6-4.3-6.5-8.2c0.1-4,3.1-7.5,7.1-8.1c1.9-0.3,3.8-0.3,5.7-0.3
		C105.8,307.8,150.4,307.8,195,307.8z"/>
	<path class="st0" d="M141.8,187.7c24.9,0,49.7,0,74.6,0c13.3,0,25.7-2.7,36.4-11.2c17.6-14,23.9-38.6,14.9-59.3
		c-8.8-20.3-30.6-33.1-51.6-30.3c-23.9,3.2-41.7,20.5-44.7,43.5c-0.3,2.1-0.4,4.3-0.6,6.5c-0.5,5.3-4.1,8.9-8.8,8.6
		c-4.7-0.2-8.2-4-8.1-9.4c0.2-9.3,2-18.2,6-26.7c12.4-26.6,39.7-42.6,67.5-39.6c30,3.2,53.1,23.6,59.9,52.9
		c8.5,36.5-17.2,75-54.2,80.7c-5.7,0.9-11.5,1.3-17.3,1.4c-51.6,0.1-103.2,0.1-154.9,0c-2,0-4.1-0.1-6-0.5c-3.9-0.8-6.6-4.3-6.5-8.2
		c0.1-4,3.1-7.5,7.1-8.1c1.7-0.3,3.5-0.3,5.3-0.3C87.8,187.7,114.8,187.7,141.8,187.7z"/>
</g>
</svg>
